<svg xmlns="http://www.w3.org/2000/svg" xmlns:xlink="http://www.w3.org/1999/xlink" width="1158" zoomAndPan="magnify" viewBox="0 0 868.5 238.499993" height="318" preserveAspectRatio="xMidYMid meet" version="1.0"><defs><g/><clipPath id="09d47d1ed0"><path d="M 0.660156 0 L 867.34375 0 L 867.34375 238 L 0.660156 238 Z M 0.660156 0 " clip-rule="nonzero"/></clipPath><clipPath id="86e247209b"><path d="M 24.460938 63 L 70 63 L 70 205.453125 L 24.460938 205.453125 Z M 24.460938 63 " clip-rule="nonzero"/></clipPath><clipPath id="b9d545cbc2"><path d="M 254.179688 63.875 L 299.480469 63.875 L 299.480469 205.453125 L 254.179688 205.453125 Z M 254.179688 63.875 " clip-rule="nonzero"/></clipPath><clipPath id="27360145a7"><path d="M 140 31.320312 L 184 31.320312 L 184 79 L 140 79 Z M 140 31.320312 " clip-rule="nonzero"/></clipPath></defs><g clip-path="url(#09d47d1ed0)"><path fill="#ffffff" d="M 0.660156 0 L 867.34375 0 L 867.34375 238 L 0.660156 238 Z M 0.660156 0 " fill-opacity="1" fill-rule="nonzero"/><path fill="#ffffff" d="M 0.660156 0 L 867.34375 0 L 867.34375 238 L 0.660156 238 Z M 0.660156 0 " fill-opacity="1" fill-rule="nonzero"/></g><path fill="#f59e72" d="M 118.292969 111.007812 C 114.917969 111.007812 111.773438 111.648438 108.855469 112.921875 C 105.9375 114.199219 103.40625 115.921875 101.265625 118.085938 C 99.121094 120.253906 97.421875 122.796875 96.167969 125.710938 C 94.914062 128.628906 94.289062 131.730469 94.289062 135.015625 C 94.289062 138.296875 94.914062 141.398438 96.167969 144.316406 C 97.421875 147.234375 99.121094 149.777344 101.265625 151.941406 C 103.40625 154.105469 105.9375 155.828125 108.855469 157.105469 C 111.773438 158.382812 114.917969 159.019531 118.292969 159.019531 C 121.621094 159.019531 124.746094 158.382812 127.664062 157.105469 C 130.582031 155.828125 133.121094 154.09375 135.289062 151.90625 C 137.453125 149.71875 139.164062 147.175781 140.417969 144.28125 C 141.671875 141.386719 142.300781 138.296875 142.300781 135.015625 C 142.300781 131.730469 141.671875 128.644531 140.417969 125.746094 C 139.164062 122.851562 137.453125 120.308594 135.289062 118.121094 C 133.121094 115.933594 130.582031 114.199219 127.664062 112.921875 C 124.746094 111.648438 121.621094 111.007812 118.292969 111.007812 Z M 156.59375 135.015625 C 156.59375 145.683594 152.851562 154.710938 145.378906 162.097656 C 137.808594 169.574219 128.78125 173.3125 118.292969 173.3125 C 107.714844 173.3125 98.6875 169.574219 91.210938 162.097656 C 83.730469 154.621094 79.992188 145.589844 79.992188 135.015625 C 79.992188 124.4375 83.730469 115.410156 91.210938 107.929688 C 98.6875 100.453125 107.714844 96.714844 118.292969 96.714844 C 128.78125 96.714844 137.808594 100.453125 145.378906 107.929688 C 149.117188 111.667969 151.90625 115.796875 153.753906 120.308594 C 155.601562 124.824219 156.546875 129.726562 156.59375 135.015625 " fill-opacity="1" fill-rule="nonzero"/><path fill="#f59e72" d="M 205.835938 111.007812 C 202.460938 111.007812 199.316406 111.648438 196.398438 112.921875 C 193.476562 114.199219 190.949219 115.921875 188.804688 118.085938 C 186.660156 120.253906 184.964844 122.796875 183.710938 125.710938 C 182.457031 128.628906 181.832031 131.730469 181.832031 135.015625 C 181.832031 138.296875 182.457031 141.398438 183.710938 144.316406 C 184.964844 147.234375 186.660156 149.777344 188.804688 151.941406 C 190.949219 154.105469 193.476562 155.828125 196.398438 157.105469 C 199.316406 158.382812 202.460938 159.019531 205.835938 159.019531 C 209.160156 159.019531 212.285156 158.382812 215.207031 157.105469 C 218.121094 155.828125 220.664062 154.09375 222.832031 151.90625 C 224.996094 149.71875 226.707031 147.175781 227.960938 144.28125 C 229.210938 141.386719 229.839844 138.296875 229.839844 135.015625 C 229.839844 131.730469 229.210938 128.644531 227.960938 125.746094 C 226.707031 122.851562 224.996094 120.308594 222.832031 118.121094 C 220.664062 115.933594 218.121094 114.199219 215.207031 112.921875 C 212.285156 111.648438 209.160156 111.007812 205.835938 111.007812 Z M 244.136719 135.015625 C 244.136719 145.683594 240.394531 154.710938 232.917969 162.097656 C 225.347656 169.574219 216.320312 173.3125 205.835938 173.3125 C 195.253906 173.3125 186.226562 169.574219 178.753906 162.097656 C 171.273438 154.621094 167.535156 145.589844 167.535156 135.015625 C 167.535156 124.4375 171.273438 115.410156 178.753906 107.929688 C 186.226562 100.453125 195.253906 96.714844 205.835938 96.714844 C 216.320312 96.714844 225.347656 100.453125 232.917969 107.929688 C 236.65625 111.667969 239.449219 115.796875 241.296875 120.308594 C 243.144531 124.824219 244.085938 129.726562 244.136719 135.015625 " fill-opacity="1" fill-rule="nonzero"/><g clip-path="url(#86e247209b)"><path fill="#211d1d" d="M 62.757812 63.953125 C 64.808594 63.953125 66.507812 64.648438 67.855469 66.039062 C 69.199219 67.433594 69.871094 69.128906 69.871094 71.136719 C 69.871094 73.1875 69.199219 74.886719 67.855469 76.230469 C 66.507812 77.574219 64.808594 78.25 62.757812 78.25 C 57.105469 78.25 54.277344 81.074219 54.277344 86.730469 L 54.277344 119.421875 C 54.277344 125.984375 52.773438 131.183594 49.765625 135.015625 C 52.773438 138.84375 54.277344 144.042969 54.277344 150.605469 L 54.277344 183.296875 C 54.277344 188.953125 57.105469 191.78125 62.757812 191.78125 C 64.808594 191.78125 66.507812 192.453125 67.855469 193.796875 C 69.199219 195.140625 69.871094 196.839844 69.871094 198.894531 C 69.871094 200.945312 69.199219 202.65625 67.855469 204.023438 C 66.507812 205.390625 64.808594 206.074219 62.757812 206.074219 C 47.574219 206.074219 39.984375 198.480469 39.984375 183.296875 L 39.984375 150.605469 C 39.984375 144.953125 37.179688 142.125 31.570312 142.125 C 29.519531 142.125 27.820312 141.453125 26.476562 140.109375 C 25.128906 138.765625 24.460938 137.066406 24.460938 135.015625 C 24.460938 132.960938 25.128906 131.261719 26.476562 129.917969 C 27.820312 128.574219 29.519531 127.902344 31.570312 127.902344 C 37.179688 127.902344 39.984375 125.074219 39.984375 119.421875 L 39.984375 86.730469 C 39.984375 71.546875 47.574219 63.953125 62.757812 63.953125 " fill-opacity="1" fill-rule="nonzero"/></g><g clip-path="url(#b9d545cbc2)"><path fill="#211d1d" d="M 284.144531 86.730469 L 284.144531 119.421875 C 284.144531 125.074219 286.949219 127.902344 292.554688 127.902344 C 294.609375 127.902344 296.304688 128.574219 297.652344 129.917969 C 298.996094 131.261719 299.667969 132.960938 299.667969 135.015625 C 299.667969 137.066406 298.996094 138.765625 297.652344 140.109375 C 296.304688 141.453125 294.609375 142.125 292.554688 142.125 C 286.949219 142.125 284.144531 144.953125 284.144531 150.605469 L 284.144531 183.296875 C 284.144531 198.480469 276.554688 206.074219 261.367188 206.074219 C 259.316406 206.074219 257.617188 205.390625 256.273438 204.023438 C 254.929688 202.65625 254.257812 200.945312 254.257812 198.894531 C 254.257812 196.839844 254.929688 195.140625 256.273438 193.796875 C 257.617188 192.453125 259.316406 191.78125 261.367188 191.78125 C 267.023438 191.78125 269.851562 188.953125 269.851562 183.296875 L 269.851562 150.605469 C 269.851562 144.042969 271.355469 138.84375 274.363281 135.015625 C 271.355469 131.183594 269.851562 125.984375 269.851562 119.421875 L 269.851562 86.730469 C 269.851562 81.074219 267.023438 78.25 261.367188 78.25 C 259.316406 78.25 257.617188 77.574219 256.273438 76.230469 C 254.929688 74.886719 254.257812 73.1875 254.257812 71.136719 C 254.257812 69.128906 254.929688 67.433594 256.273438 66.039062 C 257.617188 64.648438 259.316406 63.953125 261.367188 63.953125 C 276.554688 63.953125 284.144531 71.546875 284.144531 86.730469 " fill-opacity="1" fill-rule="nonzero"/></g><g clip-path="url(#27360145a7)"><path fill="#211d1d" d="M 183.472656 69.625 C 183.472656 70.8125 183.242188 71.914062 182.785156 72.941406 C 182.332031 73.96875 181.726562 74.867188 180.976562 75.644531 C 180.222656 76.417969 179.320312 77.023438 178.273438 77.457031 C 177.222656 77.890625 176.128906 78.105469 174.992188 78.105469 C 172.890625 78.105469 171.09375 77.375 169.585938 75.917969 C 168.082031 74.457031 166.851562 72.667969 165.894531 70.546875 C 164.9375 68.429688 164.242188 66.238281 163.808594 63.984375 C 163.375 61.726562 163.160156 59.617188 163.160156 57.65625 C 163.160156 49.585938 166.601562 41.425781 173.484375 33.171875 C 174.714844 31.941406 176.105469 31.324219 177.660156 31.324219 C 179.25 31.324219 180.621094 31.894531 181.761719 33.035156 C 182.898438 34.175781 183.472656 35.542969 183.472656 37.140625 C 183.472656 37.914062 183.308594 38.710938 182.992188 39.53125 C 180.9375 44.546875 179.914062 49.3125 179.914062 53.828125 C 179.914062 58.113281 180.847656 62.261719 182.71875 66.273438 C 183.21875 67.414062 183.472656 68.53125 183.472656 69.625 Z M 160.96875 69.625 C 160.96875 70.8125 160.742188 71.914062 160.285156 72.941406 C 159.828125 73.96875 159.226562 74.867188 158.472656 75.644531 C 157.722656 76.417969 156.820312 77.023438 155.773438 77.457031 C 154.722656 77.890625 153.628906 78.105469 152.488281 78.105469 C 150.390625 78.105469 148.589844 77.375 147.085938 75.917969 C 145.582031 74.457031 144.351562 72.667969 143.394531 70.546875 C 142.433594 68.429688 141.742188 66.238281 141.308594 63.984375 C 140.875 61.726562 140.65625 59.617188 140.65625 57.65625 C 140.65625 49.585938 144.097656 41.425781 150.984375 33.171875 C 152.214844 31.941406 153.605469 31.324219 155.15625 31.324219 C 156.75 31.324219 158.121094 31.894531 159.261719 33.035156 C 160.398438 34.175781 160.96875 35.542969 160.96875 37.140625 C 160.96875 37.914062 160.808594 38.710938 160.492188 39.53125 C 158.441406 44.546875 157.414062 49.3125 157.414062 53.828125 C 157.414062 58.113281 158.347656 62.261719 160.21875 66.273438 C 160.71875 67.414062 160.96875 68.53125 160.96875 69.625 " fill-opacity="1" fill-rule="nonzero"/></g><g fill="#211d1d" fill-opacity="1"><g transform="translate(319.119986, 116.775273)"><g><path d="M 35.96875 -8.9375 L 17.09375 -8.9375 L 14.0625 0 L 1.15625 0 L 19.46875 -50.609375 L 33.734375 -50.609375 L 52.046875 0 L 39 0 Z M 32.796875 -18.453125 L 26.53125 -36.984375 L 20.328125 -18.453125 Z M 32.796875 -18.453125 "/></g></g></g><g fill="#211d1d" fill-opacity="1"><g transform="translate(372.532875, 116.775273)"><g><path d="M 49.75 0 L 37.421875 0 L 16.796875 -31.21875 L 16.796875 0 L 4.46875 0 L 4.46875 -50.609375 L 16.796875 -50.609375 L 37.421875 -19.25 L 37.421875 -50.609375 L 49.75 -50.609375 Z M 49.75 0 "/></g></g></g><g fill="#211d1d" fill-opacity="1"><g transform="translate(427.026993, 116.775273)"><g><path d="M 40.875 -50.609375 L 40.875 -40.734375 L 27.46875 -40.734375 L 27.46875 0 L 15.140625 0 L 15.140625 -40.734375 L 1.734375 -40.734375 L 1.734375 -50.609375 Z M 40.875 -50.609375 "/></g></g></g><g fill="#211d1d" fill-opacity="1"><g transform="translate(469.915898, 116.775273)"><g><path d="M 30.28125 0 L 19.75 -19.109375 L 16.796875 -19.109375 L 16.796875 0 L 4.46875 0 L 4.46875 -50.609375 L 25.15625 -50.609375 C 29.144531 -50.609375 32.546875 -49.910156 35.359375 -48.515625 C 38.171875 -47.117188 40.273438 -45.207031 41.671875 -42.78125 C 43.066406 -40.351562 43.765625 -37.648438 43.765625 -34.671875 C 43.765625 -31.304688 42.8125 -28.300781 40.90625 -25.65625 C 39.007812 -23.019531 36.210938 -21.148438 32.515625 -20.046875 L 44.1875 0 Z M 16.796875 -27.828125 L 24.4375 -27.828125 C 26.695312 -27.828125 28.390625 -28.378906 29.515625 -29.484375 C 30.648438 -30.585938 31.21875 -32.148438 31.21875 -34.171875 C 31.21875 -36.097656 30.648438 -37.613281 29.515625 -38.71875 C 28.390625 -39.820312 26.695312 -40.375 24.4375 -40.375 L 16.796875 -40.375 Z M 16.796875 -27.828125 "/></g></g></g><g fill="#211d1d" fill-opacity="1"><g transform="translate(517.201803, 116.775273)"><g><path d="M 28.40625 0.5 C 23.644531 0.5 19.28125 -0.601562 15.3125 -2.8125 C 11.351562 -5.019531 8.207031 -8.101562 5.875 -12.0625 C 3.539062 -16.03125 2.375 -20.492188 2.375 -25.453125 C 2.375 -30.398438 3.539062 -34.84375 5.875 -38.78125 C 8.207031 -42.726562 11.351562 -45.804688 15.3125 -48.015625 C 19.28125 -50.222656 23.644531 -51.328125 28.40625 -51.328125 C 33.164062 -51.328125 37.523438 -50.222656 41.484375 -48.015625 C 45.453125 -45.804688 48.578125 -42.726562 50.859375 -38.78125 C 53.140625 -34.84375 54.28125 -30.398438 54.28125 -25.453125 C 54.28125 -20.492188 53.125 -16.03125 50.8125 -12.0625 C 48.507812 -8.101562 45.390625 -5.019531 41.453125 -2.8125 C 37.515625 -0.601562 33.164062 0.5 28.40625 0.5 Z M 28.40625 -10.734375 C 32.4375 -10.734375 35.664062 -12.078125 38.09375 -14.765625 C 40.53125 -17.460938 41.75 -21.023438 41.75 -25.453125 C 41.75 -29.921875 40.53125 -33.488281 38.09375 -36.15625 C 35.664062 -38.820312 32.4375 -40.15625 28.40625 -40.15625 C 24.320312 -40.15625 21.066406 -38.832031 18.640625 -36.1875 C 16.210938 -33.539062 15 -29.960938 15 -25.453125 C 15 -20.984375 16.210938 -17.410156 18.640625 -14.734375 C 21.066406 -12.066406 24.320312 -10.734375 28.40625 -10.734375 Z M 28.40625 -10.734375 "/></g></g></g><g fill="#211d1d" fill-opacity="1"><g transform="translate(574.146713, 116.775273)"><g><path d="M 43.046875 -34.3125 C 43.046875 -31.382812 42.367188 -28.707031 41.015625 -26.28125 C 39.671875 -23.851562 37.601562 -21.894531 34.8125 -20.40625 C 32.03125 -18.914062 28.570312 -18.171875 24.4375 -18.171875 L 16.796875 -18.171875 L 16.796875 0 L 4.46875 0 L 4.46875 -50.609375 L 24.4375 -50.609375 C 28.476562 -50.609375 31.890625 -49.910156 34.671875 -48.515625 C 37.460938 -47.117188 39.554688 -45.195312 40.953125 -42.75 C 42.347656 -40.300781 43.046875 -37.488281 43.046875 -34.3125 Z M 23.5 -27.96875 C 25.851562 -27.96875 27.609375 -28.519531 28.765625 -29.625 C 29.921875 -30.726562 30.5 -32.289062 30.5 -34.3125 C 30.5 -36.332031 29.921875 -37.894531 28.765625 -39 C 27.609375 -40.101562 25.851562 -40.65625 23.5 -40.65625 L 16.796875 -40.65625 L 16.796875 -27.96875 Z M 23.5 -27.96875 "/></g></g></g><g fill="#211d1d" fill-opacity="1"><g transform="translate(619.414333, 116.775273)"><g><path d="M 28.40625 0.5 C 23.644531 0.5 19.28125 -0.601562 15.3125 -2.8125 C 11.351562 -5.019531 8.207031 -8.101562 5.875 -12.0625 C 3.539062 -16.03125 2.375 -20.492188 2.375 -25.453125 C 2.375 -30.398438 3.539062 -34.84375 5.875 -38.78125 C 8.207031 -42.726562 11.351562 -45.804688 15.3125 -48.015625 C 19.28125 -50.222656 23.644531 -51.328125 28.40625 -51.328125 C 33.164062 -51.328125 37.523438 -50.222656 41.484375 -48.015625 C 45.453125 -45.804688 48.578125 -42.726562 50.859375 -38.78125 C 53.140625 -34.84375 54.28125 -30.398438 54.28125 -25.453125 C 54.28125 -20.492188 53.125 -16.03125 50.8125 -12.0625 C 48.507812 -8.101562 45.390625 -5.019531 41.453125 -2.8125 C 37.515625 -0.601562 33.164062 0.5 28.40625 0.5 Z M 28.40625 -10.734375 C 32.4375 -10.734375 35.664062 -12.078125 38.09375 -14.765625 C 40.53125 -17.460938 41.75 -21.023438 41.75 -25.453125 C 41.75 -29.921875 40.53125 -33.488281 38.09375 -36.15625 C 35.664062 -38.820312 32.4375 -40.15625 28.40625 -40.15625 C 24.320312 -40.15625 21.066406 -38.832031 18.640625 -36.1875 C 16.210938 -33.539062 15 -29.960938 15 -25.453125 C 15 -20.984375 16.210938 -17.410156 18.640625 -14.734375 C 21.066406 -12.066406 24.320312 -10.734375 28.40625 -10.734375 Z M 28.40625 -10.734375 "/></g></g></g><g fill="#211d1d" fill-opacity="1"><g transform="translate(676.359258, 116.775273)"><g><path d="M 2.375 -25.375 C 2.375 -30.375 3.457031 -34.832031 5.625 -38.75 C 7.789062 -42.664062 10.804688 -45.71875 14.671875 -47.90625 C 18.535156 -50.09375 22.921875 -51.1875 27.828125 -51.1875 C 33.835938 -51.1875 38.976562 -49.597656 43.25 -46.421875 C 47.53125 -43.253906 50.390625 -38.929688 51.828125 -33.453125 L 38.28125 -33.453125 C 37.269531 -35.566406 35.835938 -37.175781 33.984375 -38.28125 C 32.140625 -39.382812 30.039062 -39.9375 27.6875 -39.9375 C 23.882812 -39.9375 20.804688 -38.613281 18.453125 -35.96875 C 16.097656 -33.332031 14.921875 -29.800781 14.921875 -25.375 C 14.921875 -20.957031 16.097656 -17.425781 18.453125 -14.78125 C 20.804688 -12.132812 23.882812 -10.8125 27.6875 -10.8125 C 30.039062 -10.8125 32.140625 -11.363281 33.984375 -12.46875 C 35.835938 -13.570312 37.269531 -15.179688 38.28125 -17.296875 L 51.828125 -17.296875 C 50.390625 -11.816406 47.53125 -7.503906 43.25 -4.359375 C 38.976562 -1.210938 33.835938 0.359375 27.828125 0.359375 C 22.921875 0.359375 18.535156 -0.734375 14.671875 -2.921875 C 10.804688 -5.109375 7.789062 -8.144531 5.625 -12.03125 C 3.457031 -15.925781 2.375 -20.375 2.375 -25.375 Z M 2.375 -25.375 "/></g></g></g><g fill="#211d1d" fill-opacity="1"><g transform="translate(731.574215, 116.775273)"><g><path d="M 16.796875 -50.609375 L 16.796875 0 L 4.46875 0 L 4.46875 -50.609375 Z M 16.796875 -50.609375 "/></g></g></g><g fill="#211d1d" fill-opacity="1"><g transform="translate(753.126819, 116.775273)"><g><path d="M 49.75 0 L 37.421875 0 L 16.796875 -31.21875 L 16.796875 0 L 4.46875 0 L 4.46875 -50.609375 L 16.796875 -50.609375 L 37.421875 -19.25 L 37.421875 -50.609375 L 49.75 -50.609375 Z M 49.75 0 "/></g></g></g><g fill="#211d1d" fill-opacity="1"><g transform="translate(807.620933, 116.775273)"><g><path d="M 16.796875 -40.734375 L 16.796875 -30.5 L 33.3125 -30.5 L 33.3125 -20.984375 L 16.796875 -20.984375 L 16.796875 -9.875 L 35.46875 -9.875 L 35.46875 0 L 4.46875 0 L 4.46875 -50.609375 L 35.46875 -50.609375 L 35.46875 -40.734375 Z M 16.796875 -40.734375 "/></g></g></g><g fill="#737373" fill-opacity="1"><g transform="translate(319.119986, 159.142623)"><g><path d="M 8.515625 -11.40625 L 8.515625 -9.234375 L 3.59375 -9.234375 L 3.59375 0 L 1.21875 0 L 1.21875 -21.34375 L 9.703125 -21.34375 L 9.703125 -19.1875 L 3.59375 -19.1875 L 3.59375 -11.40625 Z M 8.515625 -11.40625 "/></g></g></g><g fill="#737373" fill-opacity="1"><g transform="translate(340.402846, 159.142623)"><g><path d="M 8.8125 -11.890625 L 8.8125 -9.765625 L 3.59375 -9.765625 L 3.59375 -2.171875 L 10 -2.171875 L 10 0 L 1.21875 0 L 1.21875 -21.34375 L 10 -21.34375 L 10 -19.1875 L 3.59375 -19.1875 L 3.59375 -11.890625 Z M 8.8125 -11.890625 "/></g></g></g><g fill="#737373" fill-opacity="1"><g transform="translate(362.295332, 159.142623)"><g><path d="M 5.703125 -21.5625 C 7.328125 -21.5625 8.523438 -21.078125 9.296875 -20.109375 C 10.078125 -19.148438 10.46875 -17.851562 10.46875 -16.21875 L 10.46875 -15.640625 L 8.203125 -15.640625 L 8.203125 -16.34375 C 8.203125 -17.320312 8.007812 -18.070312 7.625 -18.59375 C 7.238281 -19.125 6.617188 -19.390625 5.765625 -19.390625 C 4.910156 -19.390625 4.289062 -19.125 3.90625 -18.59375 C 3.519531 -18.070312 3.328125 -17.332031 3.328125 -16.375 C 3.328125 -15.582031 3.503906 -14.890625 3.859375 -14.296875 C 4.210938 -13.710938 4.65625 -13.171875 5.1875 -12.671875 C 5.71875 -12.171875 6.289062 -11.679688 6.90625 -11.203125 C 7.53125 -10.722656 8.101562 -10.195312 8.625 -9.625 C 9.15625 -9.0625 9.597656 -8.421875 9.953125 -7.703125 C 10.304688 -6.984375 10.484375 -6.125 10.484375 -5.125 C 10.484375 -3.5 10.09375 -2.203125 9.3125 -1.234375 C 8.53125 -0.265625 7.316406 0.21875 5.671875 0.21875 C 4.023438 0.21875 2.816406 -0.265625 2.046875 -1.234375 C 1.273438 -2.203125 0.890625 -3.5 0.890625 -5.125 L 0.890625 -6.34375 L 3.109375 -6.34375 L 3.109375 -5 C 3.109375 -4.019531 3.3125 -3.265625 3.71875 -2.734375 C 4.125 -2.210938 4.753906 -1.953125 5.609375 -1.953125 C 6.460938 -1.953125 7.09375 -2.210938 7.5 -2.734375 C 7.90625 -3.265625 8.109375 -4.019531 8.109375 -5 C 8.109375 -5.789062 7.929688 -6.476562 7.578125 -7.0625 C 7.222656 -7.644531 6.78125 -8.179688 6.25 -8.671875 C 5.71875 -9.171875 5.144531 -9.660156 4.53125 -10.140625 C 3.925781 -10.617188 3.359375 -11.140625 2.828125 -11.703125 C 2.304688 -12.273438 1.863281 -12.921875 1.5 -13.640625 C 1.144531 -14.367188 0.96875 -15.226562 0.96875 -16.21875 C 0.96875 -17.875 1.351562 -19.175781 2.125 -20.125 C 2.90625 -21.082031 4.097656 -21.5625 5.703125 -21.5625 Z M 5.703125 -21.5625 "/></g></g></g><g fill="#737373" fill-opacity="1"><g transform="translate(384.553587, 159.142623)"><g><path d="M 4.296875 0 L 4.296875 -19.1875 L 0.359375 -19.1875 L 0.359375 -21.34375 L 10.578125 -21.34375 L 10.578125 -19.1875 L 6.65625 -19.1875 L 6.65625 0 Z M 4.296875 0 "/></g></g></g><g fill="#737373" fill-opacity="1"><g transform="translate(406.446073, 159.142623)"><g><path d="M 3.59375 -21.34375 L 3.59375 0 L 1.21875 0 L 1.21875 -21.34375 Z M 3.59375 -21.34375 "/></g></g></g><g fill="#737373" fill-opacity="1"><g transform="translate(422.18144, 159.142623)"><g><path d="M 3.015625 -21.34375 L 6.5 -2.78125 L 9.9375 -21.34375 L 12.140625 -21.34375 L 8.140625 0 L 4.640625 0 L 0.609375 -21.34375 Z M 3.015625 -21.34375 "/></g></g></g><g fill="#737373" fill-opacity="1"><g transform="translate(445.84181, 159.142623)"><g><path d="M 3.625 -4.296875 L 2.8125 0 L 0.609375 0 L 4.703125 -21.34375 L 8.140625 -21.34375 L 12.234375 0 L 9.84375 0 L 9.03125 -4.296875 Z M 3.9375 -6.34375 L 8.6875 -6.34375 L 6.28125 -18.671875 Z M 3.9375 -6.34375 "/></g></g></g><g fill="#737373" fill-opacity="1"><g transform="translate(469.624109, 159.142623)"><g><path d="M 1.21875 0 L 1.21875 -21.34375 L 3.59375 -21.34375 L 3.59375 -2.171875 L 9.703125 -2.171875 L 9.703125 0 Z M 1.21875 0 "/></g></g></g><g fill="#737373" fill-opacity="1"><g transform="translate(490.815535, 159.142623)"><g/></g></g><g fill="#737373" fill-opacity="1"><g transform="translate(506.459447, 159.142623)"><g><path d="M 3.59375 -21.34375 L 3.59375 0 L 1.21875 0 L 1.21875 -21.34375 Z M 3.59375 -21.34375 "/></g></g></g><g fill="#737373" fill-opacity="1"><g transform="translate(522.194814, 159.142623)"><g><path d="M 3.328125 0 L 1.1875 0 L 1.1875 -21.34375 L 4.203125 -21.34375 L 9.15625 -5.921875 L 9.15625 -21.34375 L 11.25 -21.34375 L 11.25 0 L 8.78125 0 L 3.328125 -17.265625 Z M 3.328125 0 "/></g></g></g><g fill="#737373" fill-opacity="1"><g transform="translate(545.580871, 159.142623)"><g><path d="M 4.296875 0 L 4.296875 -19.1875 L 0.359375 -19.1875 L 0.359375 -21.34375 L 10.578125 -21.34375 L 10.578125 -19.1875 L 6.65625 -19.1875 L 6.65625 0 Z M 4.296875 0 "/></g></g></g><g fill="#737373" fill-opacity="1"><g transform="translate(567.473361, 159.142623)"><g><path d="M 8.8125 -11.890625 L 8.8125 -9.765625 L 3.59375 -9.765625 L 3.59375 -2.171875 L 10 -2.171875 L 10 0 L 1.21875 0 L 1.21875 -21.34375 L 10 -21.34375 L 10 -19.1875 L 3.59375 -19.1875 L 3.59375 -11.890625 Z M 8.8125 -11.890625 "/></g></g></g><g fill="#737373" fill-opacity="1"><g transform="translate(589.365851, 159.142623)"><g><path d="M 5.984375 -21.34375 C 7.671875 -21.34375 8.882812 -20.925781 9.625 -20.09375 C 10.363281 -19.257812 10.734375 -18.050781 10.734375 -16.46875 L 10.734375 -14.734375 C 10.734375 -13.554688 10.519531 -12.597656 10.09375 -11.859375 C 9.664062 -11.128906 8.992188 -10.625 8.078125 -10.34375 C 9.054688 -10.050781 9.75 -9.523438 10.15625 -8.765625 C 10.5625 -8.003906 10.765625 -7.046875 10.765625 -5.890625 L 10.765625 -2.5625 C 10.765625 -2.09375 10.785156 -1.640625 10.828125 -1.203125 C 10.867188 -0.765625 10.988281 -0.363281 11.1875 0 L 8.78125 0 C 8.644531 -0.300781 8.546875 -0.628906 8.484375 -0.984375 C 8.421875 -1.347656 8.390625 -1.882812 8.390625 -2.59375 L 8.390625 -5.953125 C 8.390625 -7.148438 8.117188 -7.976562 7.578125 -8.4375 C 7.035156 -8.894531 6.269531 -9.125 5.28125 -9.125 L 3.59375 -9.125 L 3.59375 0 L 1.21875 0 L 1.21875 -21.34375 Z M 5.375 -11.28125 C 6.320312 -11.28125 7.0625 -11.476562 7.59375 -11.875 C 8.125 -12.269531 8.390625 -13.050781 8.390625 -14.21875 L 8.390625 -16.25 C 8.390625 -17.226562 8.203125 -17.960938 7.828125 -18.453125 C 7.453125 -18.941406 6.816406 -19.1875 5.921875 -19.1875 L 3.59375 -19.1875 L 3.59375 -11.28125 Z M 5.375 -11.28125 "/></g></g></g><g fill="#737373" fill-opacity="1"><g transform="translate(612.294666, 159.142623)"><g><path d="M 3.328125 0 L 1.1875 0 L 1.1875 -21.34375 L 4.203125 -21.34375 L 9.15625 -5.921875 L 9.15625 -21.34375 L 11.25 -21.34375 L 11.25 0 L 8.78125 0 L 3.328125 -17.265625 Z M 3.328125 0 "/></g></g></g><g fill="#737373" fill-opacity="1"><g transform="translate(635.680705, 159.142623)"><g><path d="M 3.625 -4.296875 L 2.8125 0 L 0.609375 0 L 4.703125 -21.34375 L 8.140625 -21.34375 L 12.234375 0 L 9.84375 0 L 9.03125 -4.296875 Z M 3.9375 -6.34375 L 8.6875 -6.34375 L 6.28125 -18.671875 Z M 3.9375 -6.34375 "/></g></g></g><g fill="#737373" fill-opacity="1"><g transform="translate(659.463004, 159.142623)"><g><path d="M 5.828125 -21.5625 C 7.472656 -21.5625 8.6875 -21.070312 9.46875 -20.09375 C 10.25 -19.125 10.640625 -17.828125 10.640625 -16.203125 L 10.640625 -14.28125 L 8.390625 -14.28125 L 8.390625 -16.3125 C 8.390625 -17.289062 8.191406 -18.046875 7.796875 -18.578125 C 7.398438 -19.117188 6.765625 -19.390625 5.890625 -19.390625 C 5.035156 -19.390625 4.40625 -19.117188 4 -18.578125 C 3.59375 -18.046875 3.390625 -17.289062 3.390625 -16.3125 L 3.390625 -5.03125 C 3.390625 -4.050781 3.59375 -3.289062 4 -2.75 C 4.40625 -2.21875 5.035156 -1.953125 5.890625 -1.953125 C 6.765625 -1.953125 7.398438 -2.21875 7.796875 -2.75 C 8.191406 -3.289062 8.390625 -4.050781 8.390625 -5.03125 L 8.390625 -7.8125 L 10.640625 -7.8125 L 10.640625 -5.15625 C 10.640625 -3.53125 10.25 -2.226562 9.46875 -1.25 C 8.6875 -0.269531 7.472656 0.21875 5.828125 0.21875 C 4.203125 0.21875 2.992188 -0.269531 2.203125 -1.25 C 1.421875 -2.226562 1.03125 -3.53125 1.03125 -5.15625 L 1.03125 -16.203125 C 1.03125 -17.015625 1.125 -17.75 1.3125 -18.40625 C 1.507812 -19.0625 1.804688 -19.625 2.203125 -20.09375 C 2.609375 -20.5625 3.109375 -20.921875 3.703125 -21.171875 C 4.304688 -21.429688 5.015625 -21.5625 5.828125 -21.5625 Z M 5.828125 -21.5625 "/></g></g></g><g fill="#737373" fill-opacity="1"><g transform="translate(681.965103, 159.142623)"><g><path d="M 3.59375 -21.34375 L 3.59375 0 L 1.21875 0 L 1.21875 -21.34375 Z M 3.59375 -21.34375 "/></g></g></g><g fill="#737373" fill-opacity="1"><g transform="translate(697.700454, 159.142623)"><g><path d="M 1.03125 -16.203125 C 1.03125 -17.847656 1.429688 -19.148438 2.234375 -20.109375 C 3.046875 -21.078125 4.273438 -21.5625 5.921875 -21.5625 C 7.566406 -21.5625 8.796875 -21.078125 9.609375 -20.109375 C 10.421875 -19.148438 10.828125 -17.847656 10.828125 -16.203125 L 10.828125 -5.15625 C 10.828125 -3.53125 10.421875 -2.226562 9.609375 -1.25 C 8.796875 -0.269531 7.566406 0.21875 5.921875 0.21875 C 4.273438 0.21875 3.046875 -0.269531 2.234375 -1.25 C 1.429688 -2.226562 1.03125 -3.53125 1.03125 -5.15625 Z M 3.390625 -5.03125 C 3.390625 -4.050781 3.597656 -3.289062 4.015625 -2.75 C 4.429688 -2.21875 5.066406 -1.953125 5.921875 -1.953125 C 6.796875 -1.953125 7.4375 -2.21875 7.84375 -2.75 C 8.25 -3.289062 8.453125 -4.050781 8.453125 -5.03125 L 8.453125 -16.3125 C 8.453125 -17.289062 8.25 -18.046875 7.84375 -18.578125 C 7.4375 -19.117188 6.796875 -19.390625 5.921875 -19.390625 C 5.066406 -19.390625 4.429688 -19.117188 4.015625 -18.578125 C 3.597656 -18.046875 3.390625 -17.289062 3.390625 -16.3125 Z M 3.390625 -5.03125 "/></g></g></g><g fill="#737373" fill-opacity="1"><g transform="translate(720.476884, 159.142623)"><g><path d="M 3.328125 0 L 1.1875 0 L 1.1875 -21.34375 L 4.203125 -21.34375 L 9.15625 -5.921875 L 9.15625 -21.34375 L 11.25 -21.34375 L 11.25 0 L 8.78125 0 L 3.328125 -17.265625 Z M 3.328125 0 "/></g></g></g><g fill="#737373" fill-opacity="1"><g transform="translate(743.862923, 159.142623)"><g><path d="M 3.625 -4.296875 L 2.8125 0 L 0.609375 0 L 4.703125 -21.34375 L 8.140625 -21.34375 L 12.234375 0 L 9.84375 0 L 9.03125 -4.296875 Z M 3.9375 -6.34375 L 8.6875 -6.34375 L 6.28125 -18.671875 Z M 3.9375 -6.34375 "/></g></g></g><g fill="#737373" fill-opacity="1"><g transform="translate(767.645221, 159.142623)"><g><path d="M 1.21875 0 L 1.21875 -21.34375 L 3.59375 -21.34375 L 3.59375 -2.171875 L 9.703125 -2.171875 L 9.703125 0 Z M 1.21875 0 "/></g></g></g><g fill="#737373" fill-opacity="1"><g transform="translate(788.836648, 159.142623)"><g/></g></g><g fill="#737373" fill-opacity="1"><g transform="translate(804.480544, 159.142623)"><g><path d="M 6.21875 -21.34375 C 7.882812 -21.34375 9.109375 -20.867188 9.890625 -19.921875 C 10.679688 -18.984375 11.078125 -17.691406 11.078125 -16.046875 L 11.078125 -5.28125 C 11.078125 -3.632812 10.679688 -2.34375 9.890625 -1.40625 C 9.109375 -0.46875 7.882812 0 6.21875 0 L 1.21875 0 L 1.21875 -21.34375 Z M 6.1875 -2.171875 C 7.039062 -2.171875 7.675781 -2.425781 8.09375 -2.9375 C 8.507812 -3.457031 8.71875 -4.207031 8.71875 -5.1875 L 8.71875 -16.171875 C 8.71875 -17.140625 8.507812 -17.882812 8.09375 -18.40625 C 7.675781 -18.925781 7.03125 -19.1875 6.15625 -19.1875 L 3.59375 -19.1875 L 3.59375 -2.171875 Z M 6.1875 -2.171875 "/></g></g></g><g fill="#737373" fill-opacity="1"><g transform="translate(827.470324, 159.142623)"><g><path d="M 8.8125 -11.890625 L 8.8125 -9.765625 L 3.59375 -9.765625 L 3.59375 -2.171875 L 10 -2.171875 L 10 0 L 1.21875 0 L 1.21875 -21.34375 L 10 -21.34375 L 10 -19.1875 L 3.59375 -19.1875 L 3.59375 -11.890625 Z M 8.8125 -11.890625 "/></g></g></g><g fill="#737373" fill-opacity="1"><g transform="translate(319.119986, 194.6344)"><g><path d="M 6.21875 -21.34375 C 7.882812 -21.34375 9.109375 -20.867188 9.890625 -19.921875 C 10.679688 -18.984375 11.078125 -17.691406 11.078125 -16.046875 L 11.078125 -5.28125 C 11.078125 -3.632812 10.679688 -2.34375 9.890625 -1.40625 C 9.109375 -0.46875 7.882812 0 6.21875 0 L 1.21875 0 L 1.21875 -21.34375 Z M 6.1875 -2.171875 C 7.039062 -2.171875 7.675781 -2.425781 8.09375 -2.9375 C 8.507812 -3.457031 8.71875 -4.207031 8.71875 -5.1875 L 8.71875 -16.171875 C 8.71875 -17.140625 8.507812 -17.882812 8.09375 -18.40625 C 7.675781 -18.925781 7.03125 -19.1875 6.15625 -19.1875 L 3.59375 -19.1875 L 3.59375 -2.171875 Z M 6.1875 -2.171875 "/></g></g></g><g fill="#737373" fill-opacity="1"><g transform="translate(344.153351, 194.6344)"><g><path d="M 1.03125 -16.203125 C 1.03125 -17.847656 1.429688 -19.148438 2.234375 -20.109375 C 3.046875 -21.078125 4.273438 -21.5625 5.921875 -21.5625 C 7.566406 -21.5625 8.796875 -21.078125 9.609375 -20.109375 C 10.421875 -19.148438 10.828125 -17.847656 10.828125 -16.203125 L 10.828125 -5.15625 C 10.828125 -3.53125 10.421875 -2.226562 9.609375 -1.25 C 8.796875 -0.269531 7.566406 0.21875 5.921875 0.21875 C 4.273438 0.21875 3.046875 -0.269531 2.234375 -1.25 C 1.429688 -2.226562 1.03125 -3.53125 1.03125 -5.15625 Z M 3.390625 -5.03125 C 3.390625 -4.050781 3.597656 -3.289062 4.015625 -2.75 C 4.429688 -2.21875 5.066406 -1.953125 5.921875 -1.953125 C 6.796875 -1.953125 7.4375 -2.21875 7.84375 -2.75 C 8.25 -3.289062 8.453125 -4.050781 8.453125 -5.03125 L 8.453125 -16.3125 C 8.453125 -17.289062 8.25 -18.046875 7.84375 -18.578125 C 7.4375 -19.117188 6.796875 -19.390625 5.921875 -19.390625 C 5.066406 -19.390625 4.429688 -19.117188 4.015625 -18.578125 C 3.597656 -18.046875 3.390625 -17.289062 3.390625 -16.3125 Z M 3.390625 -5.03125 "/></g></g></g><g fill="#737373" fill-opacity="1"><g transform="translate(368.973349, 194.6344)"><g><path d="M 5.828125 -21.5625 C 7.472656 -21.5625 8.6875 -21.070312 9.46875 -20.09375 C 10.25 -19.125 10.640625 -17.828125 10.640625 -16.203125 L 10.640625 -14.28125 L 8.390625 -14.28125 L 8.390625 -16.3125 C 8.390625 -17.289062 8.191406 -18.046875 7.796875 -18.578125 C 7.398438 -19.117188 6.765625 -19.390625 5.890625 -19.390625 C 5.035156 -19.390625 4.40625 -19.117188 4 -18.578125 C 3.59375 -18.046875 3.390625 -17.289062 3.390625 -16.3125 L 3.390625 -5.03125 C 3.390625 -4.050781 3.59375 -3.289062 4 -2.75 C 4.40625 -2.21875 5.035156 -1.953125 5.890625 -1.953125 C 6.765625 -1.953125 7.398438 -2.21875 7.796875 -2.75 C 8.191406 -3.289062 8.390625 -4.050781 8.390625 -5.03125 L 8.390625 -7.8125 L 10.640625 -7.8125 L 10.640625 -5.15625 C 10.640625 -3.53125 10.25 -2.226562 9.46875 -1.25 C 8.6875 -0.269531 7.472656 0.21875 5.828125 0.21875 C 4.203125 0.21875 2.992188 -0.269531 2.203125 -1.25 C 1.421875 -2.226562 1.03125 -3.53125 1.03125 -5.15625 L 1.03125 -16.203125 C 1.03125 -17.015625 1.125 -17.75 1.3125 -18.40625 C 1.507812 -19.0625 1.804688 -19.625 2.203125 -20.09375 C 2.609375 -20.5625 3.109375 -20.921875 3.703125 -21.171875 C 4.304688 -21.429688 5.015625 -21.5625 5.828125 -21.5625 Z M 5.828125 -21.5625 "/></g></g></g><g fill="#737373" fill-opacity="1"><g transform="translate(393.519016, 194.6344)"><g><path d="M 3.484375 -5.03125 C 3.484375 -4.050781 3.679688 -3.289062 4.078125 -2.75 C 4.472656 -2.21875 5.109375 -1.953125 5.984375 -1.953125 C 6.835938 -1.953125 7.460938 -2.21875 7.859375 -2.75 C 8.253906 -3.289062 8.453125 -4.050781 8.453125 -5.03125 L 8.453125 -21.34375 L 10.671875 -21.34375 L 10.671875 -5.15625 C 10.671875 -3.53125 10.285156 -2.222656 9.515625 -1.234375 C 8.742188 -0.242188 7.535156 0.25 5.890625 0.25 C 4.265625 0.25 3.0625 -0.242188 2.28125 -1.234375 C 1.507812 -2.222656 1.125 -3.53125 1.125 -5.15625 L 1.125 -21.34375 L 3.484375 -21.34375 Z M 3.484375 -5.03125 "/></g></g></g><g fill="#737373" fill-opacity="1"><g transform="translate(418.278051, 194.6344)"><g><path d="M 9.09375 -0.03125 L 6.796875 -0.03125 L 3.265625 -17.015625 L 3.265625 0 L 1.1875 0 L 1.1875 -21.34375 L 4.515625 -21.34375 L 8.015625 -4.296875 L 11.40625 -21.34375 L 14.734375 -21.34375 L 14.734375 0 L 12.46875 0 L 12.46875 -17.171875 Z M 9.09375 -0.03125 "/></g></g></g><g fill="#737373" fill-opacity="1"><g transform="translate(447.182487, 194.6344)"><g><path d="M 8.8125 -11.890625 L 8.8125 -9.765625 L 3.59375 -9.765625 L 3.59375 -2.171875 L 10 -2.171875 L 10 0 L 1.21875 0 L 1.21875 -21.34375 L 10 -21.34375 L 10 -19.1875 L 3.59375 -19.1875 L 3.59375 -11.890625 Z M 8.8125 -11.890625 "/></g></g></g><g fill="#737373" fill-opacity="1"><g transform="translate(471.118545, 194.6344)"><g><path d="M 3.328125 0 L 1.1875 0 L 1.1875 -21.34375 L 4.203125 -21.34375 L 9.15625 -5.921875 L 9.15625 -21.34375 L 11.25 -21.34375 L 11.25 0 L 8.78125 0 L 3.328125 -17.265625 Z M 3.328125 0 "/></g></g></g><g fill="#737373" fill-opacity="1"><g transform="translate(496.548177, 194.6344)"><g><path d="M 4.328125 0 L 4.328125 -19.1875 L 0.390625 -19.1875 L 0.390625 -21.34375 L 10.640625 -21.34375 L 10.640625 -19.1875 L 6.703125 -19.1875 L 6.703125 0 Z M 4.328125 0 "/></g></g></g><g fill="#737373" fill-opacity="1"><g transform="translate(520.575682, 194.6344)"><g><path d="M 3.625 -4.296875 L 2.8125 0 L 0.609375 0 L 4.703125 -21.34375 L 8.140625 -21.34375 L 12.234375 0 L 9.84375 0 L 9.03125 -4.296875 Z M 3.9375 -6.34375 L 8.6875 -6.34375 L 6.28125 -18.671875 Z M 3.9375 -6.34375 "/></g></g></g><g fill="#737373" fill-opacity="1"><g transform="translate(546.401541, 194.6344)"><g><path d="M 1.21875 0 L 1.21875 -21.34375 L 3.59375 -21.34375 L 3.59375 -2.171875 L 9.703125 -2.171875 L 9.703125 0 Z M 1.21875 0 "/></g></g></g><g fill="#737373" fill-opacity="1"><g transform="translate(569.636527, 194.6344)"><g/></g></g><g fill="#737373" fill-opacity="1"><g transform="translate(587.324016, 194.6344)"><g><path d="M 8.8125 -11.890625 L 8.8125 -9.765625 L 3.59375 -9.765625 L 3.59375 -2.171875 L 10 -2.171875 L 10 0 L 1.21875 0 L 1.21875 -21.34375 L 10 -21.34375 L 10 -19.1875 L 3.59375 -19.1875 L 3.59375 -11.890625 Z M 8.8125 -11.890625 "/></g></g></g><g fill="#737373" fill-opacity="1"><g transform="translate(611.260067, 194.6344)"><g><path d="M 4.296875 0 L 4.296875 -19.1875 L 0.359375 -19.1875 L 0.359375 -21.34375 L 10.578125 -21.34375 L 10.578125 -19.1875 L 6.65625 -19.1875 L 6.65625 0 Z M 4.296875 0 "/></g></g></g><g fill="#737373" fill-opacity="1"><g transform="translate(635.196117, 194.6344)"><g><path d="M 3.328125 0 L 1.1875 0 L 1.1875 -21.34375 L 4.203125 -21.34375 L 9.15625 -5.921875 L 9.15625 -21.34375 L 11.25 -21.34375 L 11.25 0 L 8.78125 0 L 3.328125 -17.265625 Z M 3.328125 0 "/></g></g></g><g fill="#737373" fill-opacity="1"><g transform="translate(660.625749, 194.6344)"><g><path d="M 1.03125 -16.203125 C 1.03125 -17.847656 1.429688 -19.148438 2.234375 -20.109375 C 3.046875 -21.078125 4.273438 -21.5625 5.921875 -21.5625 C 7.566406 -21.5625 8.796875 -21.078125 9.609375 -20.109375 C 10.421875 -19.148438 10.828125 -17.847656 10.828125 -16.203125 L 10.828125 -5.15625 C 10.828125 -3.53125 10.421875 -2.226562 9.609375 -1.25 C 8.796875 -0.269531 7.566406 0.21875 5.921875 0.21875 C 4.273438 0.21875 3.046875 -0.269531 2.234375 -1.25 C 1.429688 -2.226562 1.03125 -3.53125 1.03125 -5.15625 Z M 3.390625 -5.03125 C 3.390625 -4.050781 3.597656 -3.289062 4.015625 -2.75 C 4.429688 -2.21875 5.066406 -1.953125 5.921875 -1.953125 C 6.796875 -1.953125 7.4375 -2.21875 7.84375 -2.75 C 8.25 -3.289062 8.453125 -4.050781 8.453125 -5.03125 L 8.453125 -16.3125 C 8.453125 -17.289062 8.25 -18.046875 7.84375 -18.578125 C 7.4375 -19.117188 6.796875 -19.390625 5.921875 -19.390625 C 5.066406 -19.390625 4.429688 -19.117188 4.015625 -18.578125 C 3.597656 -18.046875 3.390625 -17.289062 3.390625 -16.3125 Z M 3.390625 -5.03125 "/></g></g></g><g fill="#737373" fill-opacity="1"><g transform="translate(685.44574, 194.6344)"><g><path d="M 5.828125 -21.5625 C 7.472656 -21.5625 8.6875 -21.070312 9.46875 -20.09375 C 10.25 -19.125 10.640625 -17.828125 10.640625 -16.203125 L 10.640625 -14.359375 L 8.390625 -14.359375 L 8.390625 -16.3125 C 8.390625 -17.289062 8.191406 -18.046875 7.796875 -18.578125 C 7.398438 -19.117188 6.765625 -19.390625 5.890625 -19.390625 C 5.035156 -19.390625 4.40625 -19.117188 4 -18.578125 C 3.59375 -18.046875 3.390625 -17.289062 3.390625 -16.3125 L 3.390625 -5.03125 C 3.390625 -4.050781 3.59375 -3.289062 4 -2.75 C 4.40625 -2.21875 5.035156 -1.953125 5.890625 -1.953125 C 6.765625 -1.953125 7.398438 -2.21875 7.796875 -2.75 C 8.191406 -3.289062 8.390625 -4.050781 8.390625 -5.03125 L 8.390625 -9.296875 L 6.1875 -9.296875 L 6.1875 -11.4375 L 10.640625 -11.4375 L 10.640625 -5.15625 C 10.640625 -3.53125 10.25 -2.226562 9.46875 -1.25 C 8.6875 -0.269531 7.472656 0.21875 5.828125 0.21875 C 4.203125 0.21875 2.992188 -0.269531 2.203125 -1.25 C 1.421875 -2.226562 1.03125 -3.53125 1.03125 -5.15625 L 1.03125 -16.203125 C 1.03125 -17.015625 1.125 -17.75 1.3125 -18.40625 C 1.507812 -19.0625 1.804688 -19.625 2.203125 -20.09375 C 2.609375 -20.5625 3.109375 -20.921875 3.703125 -21.171875 C 4.304688 -21.429688 5.015625 -21.5625 5.828125 -21.5625 Z M 5.828125 -21.5625 "/></g></g></g><g fill="#737373" fill-opacity="1"><g transform="translate(710.082854, 194.6344)"><g><path d="M 5.984375 -21.34375 C 7.671875 -21.34375 8.882812 -20.925781 9.625 -20.09375 C 10.363281 -19.257812 10.734375 -18.050781 10.734375 -16.46875 L 10.734375 -14.734375 C 10.734375 -13.554688 10.519531 -12.597656 10.09375 -11.859375 C 9.664062 -11.128906 8.992188 -10.625 8.078125 -10.34375 C 9.054688 -10.050781 9.75 -9.523438 10.15625 -8.765625 C 10.5625 -8.003906 10.765625 -7.046875 10.765625 -5.890625 L 10.765625 -2.5625 C 10.765625 -2.09375 10.785156 -1.640625 10.828125 -1.203125 C 10.867188 -0.765625 10.988281 -0.363281 11.1875 0 L 8.78125 0 C 8.644531 -0.300781 8.546875 -0.628906 8.484375 -0.984375 C 8.421875 -1.347656 8.390625 -1.882812 8.390625 -2.59375 L 8.390625 -5.953125 C 8.390625 -7.148438 8.117188 -7.976562 7.578125 -8.4375 C 7.035156 -8.894531 6.269531 -9.125 5.28125 -9.125 L 3.59375 -9.125 L 3.59375 0 L 1.21875 0 L 1.21875 -21.34375 Z M 5.375 -11.28125 C 6.320312 -11.28125 7.0625 -11.476562 7.59375 -11.875 C 8.125 -12.269531 8.390625 -13.050781 8.390625 -14.21875 L 8.390625 -16.25 C 8.390625 -17.226562 8.203125 -17.960938 7.828125 -18.453125 C 7.453125 -18.941406 6.816406 -19.1875 5.921875 -19.1875 L 3.59375 -19.1875 L 3.59375 -11.28125 Z M 5.375 -11.28125 "/></g></g></g><g fill="#737373" fill-opacity="1"><g transform="translate(735.055247, 194.6344)"><g><path d="M 9.296875 -25.625 L 6.5 -22.484375 L 4.8125 -22.484375 L 6.953125 -25.625 Z M 3.625 -4.296875 L 2.8125 0 L 0.609375 0 L 4.703125 -21.34375 L 8.140625 -21.34375 L 12.234375 0 L 9.84375 0 L 9.03125 -4.296875 Z M 3.9375 -6.34375 L 8.6875 -6.34375 L 6.28125 -18.671875 Z M 3.9375 -6.34375 "/></g></g></g><g fill="#737373" fill-opacity="1"><g transform="translate(760.881106, 194.6344)"><g><path d="M 8.515625 -11.40625 L 8.515625 -9.234375 L 3.59375 -9.234375 L 3.59375 0 L 1.21875 0 L 1.21875 -21.34375 L 9.703125 -21.34375 L 9.703125 -19.1875 L 3.59375 -19.1875 L 3.59375 -11.40625 Z M 8.515625 -11.40625 "/></g></g></g><g fill="#737373" fill-opacity="1"><g transform="translate(784.207546, 194.6344)"><g><path d="M 3.59375 -21.34375 L 3.59375 0 L 1.21875 0 L 1.21875 -21.34375 Z M 3.59375 -21.34375 "/></g></g></g><g fill="#737373" fill-opacity="1"><g transform="translate(801.98649, 194.6344)"><g><path d="M 5.828125 -21.5625 C 7.472656 -21.5625 8.6875 -21.070312 9.46875 -20.09375 C 10.25 -19.125 10.640625 -17.828125 10.640625 -16.203125 L 10.640625 -14.28125 L 8.390625 -14.28125 L 8.390625 -16.3125 C 8.390625 -17.289062 8.191406 -18.046875 7.796875 -18.578125 C 7.398438 -19.117188 6.765625 -19.390625 5.890625 -19.390625 C 5.035156 -19.390625 4.40625 -19.117188 4 -18.578125 C 3.59375 -18.046875 3.390625 -17.289062 3.390625 -16.3125 L 3.390625 -5.03125 C 3.390625 -4.050781 3.59375 -3.289062 4 -2.75 C 4.40625 -2.21875 5.035156 -1.953125 5.890625 -1.953125 C 6.765625 -1.953125 7.398438 -2.21875 7.796875 -2.75 C 8.191406 -3.289062 8.390625 -4.050781 8.390625 -5.03125 L 8.390625 -7.8125 L 10.640625 -7.8125 L 10.640625 -5.15625 C 10.640625 -3.53125 10.25 -2.226562 9.46875 -1.25 C 8.6875 -0.269531 7.472656 0.21875 5.828125 0.21875 C 4.203125 0.21875 2.992188 -0.269531 2.203125 -1.25 C 1.421875 -2.226562 1.03125 -3.53125 1.03125 -5.15625 L 1.03125 -16.203125 C 1.03125 -17.015625 1.125 -17.75 1.3125 -18.40625 C 1.507812 -19.0625 1.804688 -19.625 2.203125 -20.09375 C 2.609375 -20.5625 3.109375 -20.921875 3.703125 -21.171875 C 4.304688 -21.429688 5.015625 -21.5625 5.828125 -21.5625 Z M 5.828125 -21.5625 "/></g></g></g><g fill="#737373" fill-opacity="1"><g transform="translate(826.532149, 194.6344)"><g><path d="M 1.03125 -16.203125 C 1.03125 -17.847656 1.429688 -19.148438 2.234375 -20.109375 C 3.046875 -21.078125 4.273438 -21.5625 5.921875 -21.5625 C 7.566406 -21.5625 8.796875 -21.078125 9.609375 -20.109375 C 10.421875 -19.148438 10.828125 -17.847656 10.828125 -16.203125 L 10.828125 -5.15625 C 10.828125 -3.53125 10.421875 -2.226562 9.609375 -1.25 C 8.796875 -0.269531 7.566406 0.21875 5.921875 0.21875 C 4.273438 0.21875 3.046875 -0.269531 2.234375 -1.25 C 1.429688 -2.226562 1.03125 -3.53125 1.03125 -5.15625 Z M 3.390625 -5.03125 C 3.390625 -4.050781 3.597656 -3.289062 4.015625 -2.75 C 4.429688 -2.21875 5.066406 -1.953125 5.921875 -1.953125 C 6.796875 -1.953125 7.4375 -2.21875 7.84375 -2.75 C 8.25 -3.289062 8.453125 -4.050781 8.453125 -5.03125 L 8.453125 -16.3125 C 8.453125 -17.289062 8.25 -18.046875 7.84375 -18.578125 C 7.4375 -19.117188 6.796875 -19.390625 5.921875 -19.390625 C 5.066406 -19.390625 4.429688 -19.117188 4.015625 -18.578125 C 3.597656 -18.046875 3.390625 -17.289062 3.390625 -16.3125 Z M 3.390625 -5.03125 "/></g></g></g></svg>