<svg xmlns="http://www.w3.org/2000/svg" xmlns:xlink="http://www.w3.org/1999/xlink" width="63" zoomAndPan="magnify" viewBox="0 0 47.25 47.250001" height="63" preserveAspectRatio="xMidYMid meet" version="1.0"><defs><clipPath id="6f9d1c86ce"><path d="M 1.070312 1.070312 L 45.367188 1.070312 L 45.367188 45.367188 L 1.070312 45.367188 Z M 1.070312 1.070312 " clip-rule="nonzero"/></clipPath></defs><path fill="#f59e72" d="M 40.628906 20.703125 C 40.628906 30.277344 32.871094 38.035156 23.296875 38.035156 C 13.722656 38.035156 5.964844 30.277344 5.964844 20.703125 C 5.964844 11.128906 13.722656 3.371094 23.296875 3.371094 C 32.871094 3.371094 40.628906 11.128906 40.628906 20.703125 Z M 40.628906 20.703125 " fill-opacity="1" fill-rule="nonzero"/><g clip-path="url(#6f9d1c86ce)"><path fill="#272222" d="M 35.316406 1.113281 L 11.265625 1.113281 C 5.664062 1.113281 1.105469 5.671875 1.105469 11.277344 L 1.105469 35.328125 C 1.105469 40.929688 5.664062 45.488281 11.265625 45.488281 L 35.316406 45.488281 C 40.921875 45.488281 45.480469 40.929688 45.480469 35.328125 L 45.480469 11.277344 C 45.480469 5.671875 40.921875 1.113281 35.316406 1.113281 Z M 42.886719 35.328125 C 42.886719 39.496094 39.496094 42.894531 35.316406 42.894531 L 11.265625 42.894531 C 7.097656 42.894531 3.699219 39.503906 3.699219 35.328125 L 3.699219 11.277344 C 3.699219 7.105469 7.089844 3.707031 11.265625 3.707031 L 35.316406 3.707031 C 39.488281 3.707031 42.886719 7.097656 42.886719 11.277344 Z M 37.523438 17.5625 L 37.523438 28.339844 C 37.523438 29.054688 36.945312 29.636719 36.226562 29.636719 C 35.507812 29.636719 34.929688 29.054688 34.929688 28.339844 L 34.929688 17.5625 C 34.929688 16.84375 35.507812 16.265625 36.226562 16.265625 C 36.945312 16.265625 37.523438 16.84375 37.523438 17.5625 Z M 31.234375 13.558594 L 31.234375 32.621094 C 31.234375 33.335938 30.65625 33.917969 29.9375 33.917969 C 29.222656 33.917969 28.640625 33.335938 28.640625 32.621094 L 28.640625 13.558594 C 28.640625 12.839844 29.222656 12.261719 29.9375 12.261719 C 30.65625 12.261719 31.234375 12.839844 31.234375 13.558594 Z M 24.949219 10.097656 L 24.949219 36.242188 C 24.949219 36.960938 24.371094 37.539062 23.652344 37.539062 C 22.933594 37.539062 22.355469 36.960938 22.355469 36.242188 L 22.355469 10.097656 C 22.355469 9.382812 22.933594 8.800781 23.652344 8.800781 C 24.371094 8.800781 24.949219 9.382812 24.949219 10.097656 Z M 18.660156 16.921875 L 18.660156 29.808594 C 18.660156 30.527344 18.082031 31.105469 17.363281 31.105469 C 16.644531 31.105469 16.066406 30.527344 16.066406 29.808594 L 16.066406 16.921875 C 16.066406 16.207031 16.644531 15.625 17.363281 15.625 C 18.082031 15.625 18.660156 16.207031 18.660156 16.921875 Z M 12.375 12.375 L 12.375 34.140625 C 12.375 34.859375 11.792969 35.4375 11.078125 35.4375 C 10.359375 35.4375 9.78125 34.859375 9.78125 34.140625 L 9.78125 12.375 C 9.78125 11.65625 10.359375 11.078125 11.078125 11.078125 C 11.792969 11.078125 12.375 11.65625 12.375 12.375 Z M 12.375 12.375 " fill-opacity="1" fill-rule="nonzero"/></g></svg>