<svg xmlns="http://www.w3.org/2000/svg" xmlns:xlink="http://www.w3.org/1999/xlink" width="63" zoomAndPan="magnify" viewBox="0 0 47.25 47.250001" height="63" preserveAspectRatio="xMidYMid meet" version="1.0"><defs><clipPath id="9f595d4970"><path d="M 1 1 L 45.292969 1 L 45.292969 45.292969 L 1 45.292969 Z M 1 1 " clip-rule="nonzero"/></clipPath></defs><g clip-path="url(#9f595d4970)"><path fill="#272222" d="M 35.359375 1.039062 L 11.226562 1.039062 C 5.605469 1.039062 1.03125 5.613281 1.03125 11.234375 L 1.03125 35.367188 C 1.03125 40.992188 5.605469 45.566406 11.226562 45.566406 L 35.359375 45.566406 C 40.984375 45.566406 45.554688 40.992188 45.554688 35.367188 L 45.554688 11.234375 C 45.554688 5.613281 40.984375 1.039062 35.359375 1.039062 Z M 42.953125 35.367188 C 42.953125 39.550781 39.550781 42.960938 35.359375 42.960938 L 11.226562 42.960938 C 7.046875 42.960938 3.632812 39.558594 3.632812 35.367188 L 3.632812 11.234375 C 3.632812 7.054688 7.035156 3.644531 11.226562 3.644531 L 35.359375 3.644531 C 39.542969 3.644531 42.953125 7.046875 42.953125 11.234375 Z M 37.574219 17.542969 L 37.574219 28.355469 C 37.574219 29.078125 36.992188 29.660156 36.269531 29.660156 C 35.550781 29.660156 34.96875 29.078125 34.96875 28.355469 L 34.96875 17.542969 C 34.96875 16.824219 35.550781 16.242188 36.269531 16.242188 C 36.992188 16.242188 37.574219 16.824219 37.574219 17.542969 Z M 31.265625 13.527344 L 31.265625 32.652344 C 31.265625 33.371094 30.683594 33.953125 29.960938 33.953125 C 29.242188 33.953125 28.660156 33.371094 28.660156 32.652344 L 28.660156 13.527344 C 28.660156 12.808594 29.242188 12.226562 29.960938 12.226562 C 30.683594 12.226562 31.265625 12.808594 31.265625 13.527344 Z M 24.957031 10.054688 L 24.957031 36.289062 C 24.957031 37.007812 24.375 37.589844 23.652344 37.589844 C 22.933594 37.589844 22.351562 37.007812 22.351562 36.289062 L 22.351562 10.054688 C 22.351562 9.335938 22.933594 8.753906 23.652344 8.753906 C 24.375 8.753906 24.957031 9.335938 24.957031 10.054688 Z M 18.648438 16.902344 L 18.648438 29.832031 C 18.648438 30.550781 18.066406 31.132812 17.34375 31.132812 C 16.625 31.132812 16.042969 30.550781 16.042969 29.832031 L 16.042969 16.902344 C 16.042969 16.183594 16.625 15.601562 17.34375 15.601562 C 18.066406 15.601562 18.648438 16.183594 18.648438 16.902344 Z M 12.339844 12.339844 L 12.339844 34.179688 C 12.339844 34.898438 11.757812 35.480469 11.035156 35.480469 C 10.316406 35.480469 9.734375 34.898438 9.734375 34.179688 L 9.734375 12.339844 C 9.734375 11.617188 10.316406 11.035156 11.035156 11.035156 C 11.757812 11.035156 12.339844 11.617188 12.339844 12.339844 Z M 12.339844 12.339844 " fill-opacity="1" fill-rule="nonzero"/></g></svg>