<svg xmlns="http://www.w3.org/2000/svg" xmlns:xlink="http://www.w3.org/1999/xlink" width="63" zoomAndPan="magnify" viewBox="0 0 47.25 47.250001" height="63" preserveAspectRatio="xMidYMid meet" version="1.0"><defs><clipPath id="a8adafcacf"><path d="M 7 29 L 21 29 L 21 45.640625 L 7 45.640625 Z M 7 29 " clip-rule="nonzero"/></clipPath><clipPath id="7fa6c97bd0"><path d="M 25 29 L 39.460938 29 L 39.460938 45.640625 L 25 45.640625 Z M 25 29 " clip-rule="nonzero"/></clipPath><clipPath id="7430b64c7e"><path d="M 7 0.605469 L 39.460938 0.605469 L 39.460938 33 L 7 33 Z M 7 0.605469 " clip-rule="nonzero"/></clipPath><clipPath id="e91f537dfd"><path d="M 37.394531 28.460938 L 39.535156 28.460938 L 39.535156 30.601562 L 37.394531 30.601562 Z M 37.394531 28.460938 " clip-rule="nonzero"/></clipPath><clipPath id="dd64389134"><path d="M 38.464844 28.460938 C 37.875 28.460938 37.394531 28.941406 37.394531 29.53125 C 37.394531 30.121094 37.875 30.601562 38.464844 30.601562 C 39.054688 30.601562 39.535156 30.121094 39.535156 29.53125 C 39.535156 28.941406 39.054688 28.460938 38.464844 28.460938 Z M 38.464844 28.460938 " clip-rule="nonzero"/></clipPath></defs><g clip-path="url(#a8adafcacf)"><path fill="#272222" d="M 19.445312 33.585938 L 15.707031 43.636719 L 13.589844 40.605469 C 13.449219 40.429688 13.238281 40.289062 13.023438 40.289062 C 12.953125 40.289062 12.882812 40.289062 12.847656 40.324219 L 9.25 41.308594 L 13.273438 30.480469 C 13.023438 30.09375 12.882812 29.671875 12.742188 29.351562 C 12.707031 29.28125 12.671875 29.210938 12.671875 29.140625 C 12.566406 29.105469 12.425781 29.105469 12.320312 29.070312 L 7.488281 42.121094 C 7.382812 42.367188 7.453125 42.652344 7.628906 42.828125 C 7.804688 43.039062 8.085938 43.109375 8.332031 43.039062 L 12.777344 41.804688 L 15.386719 45.507812 C 15.527344 45.683594 15.742188 45.824219 15.953125 45.824219 C 16.234375 45.824219 16.515625 45.648438 16.621094 45.367188 L 20.855469 33.867188 C 20.644531 33.867188 20.433594 33.867188 20.21875 33.832031 C 19.902344 33.761719 19.65625 33.691406 19.445312 33.585938 Z M 19.445312 33.585938 " fill-opacity="1" fill-rule="nonzero"/></g><g clip-path="url(#7fa6c97bd0)"><path fill="#272222" d="M 34.257812 29.070312 C 34.152344 29.105469 34.011719 29.105469 33.90625 29.140625 C 33.871094 29.210938 33.835938 29.28125 33.835938 29.351562 C 33.695312 29.671875 33.554688 30.09375 33.304688 30.480469 L 37.328125 41.308594 L 33.730469 40.324219 C 33.445312 40.253906 33.128906 40.359375 32.953125 40.605469 L 30.835938 43.636719 L 27.0625 33.585938 C 26.816406 33.691406 26.570312 33.761719 26.285156 33.832031 C 26.109375 33.867188 25.933594 33.867188 25.757812 33.867188 C 25.722656 33.867188 25.6875 33.867188 25.652344 33.867188 L 29.957031 45.402344 C 30.0625 45.648438 30.273438 45.824219 30.519531 45.859375 C 30.765625 45.894531 31.046875 45.789062 31.191406 45.578125 L 33.800781 41.875 L 38.242188 43.109375 C 38.492188 43.179688 38.773438 43.109375 38.949219 42.898438 C 39.125 42.6875 39.195312 42.4375 39.089844 42.191406 Z M 34.257812 29.070312 " fill-opacity="1" fill-rule="nonzero"/></g><g clip-path="url(#7430b64c7e)"><path fill="#272222" d="M 26.074219 32.421875 C 26.746094 32.316406 27.238281 31.75 27.699219 31.257812 C 27.945312 30.976562 28.226562 30.660156 28.402344 30.585938 C 28.613281 30.515625 29.039062 30.585938 29.425781 30.660156 C 30.0625 30.765625 30.765625 30.871094 31.402344 30.515625 C 32.035156 30.164062 32.28125 29.496094 32.496094 28.894531 C 32.636719 28.542969 32.777344 28.152344 32.953125 28.011719 C 33.128906 27.871094 33.554688 27.800781 33.90625 27.730469 C 34.539062 27.625 35.246094 27.484375 35.703125 26.953125 C 36.164062 26.425781 36.164062 25.683594 36.164062 25.050781 C 36.164062 24.660156 36.164062 24.273438 36.269531 24.0625 C 36.375 23.886719 36.726562 23.675781 37.042969 23.460938 C 37.609375 23.144531 38.242188 22.757812 38.492188 22.085938 C 38.738281 21.417969 38.492188 20.746094 38.28125 20.148438 C 38.136719 19.792969 37.996094 19.40625 38.03125 19.160156 C 38.066406 18.949219 38.351562 18.628906 38.5625 18.347656 C 38.984375 17.855469 39.441406 17.289062 39.441406 16.550781 C 39.441406 15.808594 38.984375 15.246094 38.5625 14.75 C 38.316406 14.46875 38.066406 14.152344 38.03125 13.9375 C 37.996094 13.726562 38.136719 13.304688 38.28125 12.953125 C 38.492188 12.351562 38.738281 11.683594 38.492188 11.011719 C 38.242188 10.339844 37.609375 9.953125 37.042969 9.636719 C 36.726562 9.460938 36.375 9.25 36.269531 9.035156 C 36.164062 8.859375 36.164062 8.4375 36.164062 8.050781 C 36.164062 7.414062 36.164062 6.671875 35.703125 6.144531 C 35.246094 5.617188 34.539062 5.472656 33.90625 5.367188 C 33.554688 5.296875 33.128906 5.226562 32.953125 5.085938 C 32.777344 4.945312 32.636719 4.558594 32.496094 4.203125 C 32.28125 3.605469 32 2.933594 31.402344 2.582031 C 30.800781 2.230469 30.0625 2.335938 29.425781 2.441406 C 29.039062 2.511719 28.613281 2.582031 28.402344 2.511719 C 28.191406 2.441406 27.945312 2.125 27.699219 1.839844 C 27.273438 1.417969 26.78125 0.855469 26.074219 0.746094 C 25.371094 0.640625 24.769531 0.996094 24.207031 1.277344 C 23.886719 1.453125 23.5 1.664062 23.253906 1.664062 C 23.007812 1.664062 22.652344 1.453125 22.300781 1.277344 C 21.773438 0.960938 21.136719 0.605469 20.433594 0.746094 C 19.726562 0.890625 19.234375 1.417969 18.808594 1.910156 C 18.5625 2.195312 18.28125 2.511719 18.105469 2.582031 C 17.890625 2.652344 17.46875 2.582031 17.082031 2.511719 C 16.445312 2.40625 15.742188 2.300781 15.105469 2.652344 C 14.472656 3.003906 14.222656 3.675781 14.011719 4.273438 C 13.871094 4.628906 13.730469 5.015625 13.554688 5.15625 C 13.378906 5.296875 12.953125 5.367188 12.601562 5.4375 C 11.964844 5.542969 11.261719 5.6875 10.800781 6.214844 C 10.34375 6.742188 10.34375 7.484375 10.34375 8.121094 C 10.34375 8.507812 10.34375 8.894531 10.238281 9.105469 C 10.132812 9.285156 9.78125 9.496094 9.460938 9.707031 C 8.898438 10.023438 8.261719 10.414062 8.015625 11.082031 C 7.769531 11.753906 8.015625 12.421875 8.226562 13.023438 C 8.367188 13.375 8.511719 13.761719 8.476562 14.011719 C 8.4375 14.222656 8.15625 14.539062 7.945312 14.820312 C 7.523438 15.316406 7.0625 15.878906 7.0625 16.621094 C 7.0625 17.359375 7.523438 17.925781 7.945312 18.417969 C 8.191406 18.699219 8.4375 19.019531 8.476562 19.230469 C 8.511719 19.441406 8.367188 19.863281 8.226562 20.21875 C 8.015625 20.816406 7.769531 21.488281 8.015625 22.15625 C 8.261719 22.828125 8.898438 23.214844 9.460938 23.535156 C 9.78125 23.710938 10.132812 23.921875 10.238281 24.132812 C 10.34375 24.308594 10.34375 24.734375 10.34375 25.121094 C 10.34375 25.753906 10.34375 26.496094 10.800781 27.023438 C 11.261719 27.554688 11.964844 27.695312 12.601562 27.800781 C 12.953125 27.871094 13.378906 27.941406 13.554688 28.082031 C 13.730469 28.222656 13.871094 28.613281 14.011719 28.964844 C 14.222656 29.566406 14.507812 30.234375 15.105469 30.585938 C 15.707031 30.941406 16.445312 30.835938 17.082031 30.730469 C 17.46875 30.660156 17.890625 30.585938 18.105469 30.660156 C 18.316406 30.730469 18.5625 31.046875 18.808594 31.328125 C 19.234375 31.820312 19.691406 32.386719 20.433594 32.492188 C 21.136719 32.597656 21.738281 32.246094 22.300781 31.964844 C 22.617188 31.785156 23.007812 31.574219 23.253906 31.574219 C 23.5 31.574219 23.851562 31.785156 24.207031 31.964844 C 24.769531 32.210938 25.40625 32.5625 26.074219 32.421875 Z M 24.875 30.660156 C 24.382812 30.375 23.851562 30.09375 23.253906 30.09375 C 22.652344 30.09375 22.089844 30.410156 21.632812 30.660156 C 21.3125 30.835938 20.890625 31.082031 20.679688 31.046875 C 20.46875 31.011719 20.148438 30.660156 19.902344 30.339844 C 19.550781 29.917969 19.160156 29.457031 18.597656 29.28125 C 18.035156 29.070312 17.433594 29.175781 16.871094 29.28125 C 16.480469 29.351562 16.023438 29.421875 15.847656 29.316406 C 15.671875 29.210938 15.492188 28.753906 15.351562 28.402344 C 15.175781 27.90625 14.929688 27.308594 14.507812 26.917969 C 14.046875 26.53125 13.449219 26.425781 12.882812 26.320312 C 12.496094 26.25 12.039062 26.179688 11.894531 26.003906 C 11.753906 25.859375 11.753906 25.367188 11.753906 24.980469 C 11.753906 24.414062 11.753906 23.816406 11.4375 23.285156 C 11.15625 22.792969 10.589844 22.476562 10.132812 22.191406 C 9.816406 21.980469 9.390625 21.769531 9.320312 21.558594 C 9.25 21.382812 9.425781 20.921875 9.53125 20.570312 C 9.710938 20.042969 9.921875 19.476562 9.816406 18.878906 C 9.710938 18.3125 9.320312 17.820312 8.96875 17.429688 C 8.757812 17.183594 8.4375 16.796875 8.4375 16.585938 C 8.4375 16.375 8.757812 15.984375 9.003906 15.703125 C 9.355469 15.28125 9.746094 14.820312 9.851562 14.257812 C 9.957031 13.65625 9.746094 13.09375 9.566406 12.5625 C 9.425781 12.210938 9.285156 11.753906 9.355469 11.578125 C 9.425781 11.363281 9.851562 11.152344 10.167969 10.941406 C 10.625 10.660156 11.191406 10.339844 11.472656 9.847656 C 11.753906 9.320312 11.789062 8.71875 11.789062 8.15625 C 11.789062 7.765625 11.789062 7.308594 11.929688 7.132812 C 12.074219 6.992188 12.53125 6.886719 12.917969 6.816406 C 13.449219 6.707031 14.082031 6.601562 14.542969 6.214844 C 15 5.828125 15.210938 5.261719 15.386719 4.734375 C 15.527344 4.378906 15.707031 3.921875 15.882812 3.816406 C 16.058594 3.710938 16.515625 3.78125 16.90625 3.851562 C 17.433594 3.957031 18.070312 4.027344 18.632812 3.851562 C 19.199219 3.640625 19.585938 3.179688 19.9375 2.792969 C 20.183594 2.511719 20.503906 2.125 20.714844 2.089844 C 20.925781 2.054688 21.3125 2.300781 21.667969 2.476562 C 22.160156 2.757812 22.6875 3.039062 23.289062 3.039062 C 23.886719 3.039062 24.453125 2.722656 24.910156 2.476562 C 25.230469 2.300781 25.652344 2.054688 25.863281 2.089844 C 26.074219 2.125 26.394531 2.476562 26.640625 2.792969 C 26.992188 3.214844 27.378906 3.675781 27.945312 3.851562 C 28.507812 4.0625 29.109375 3.957031 29.671875 3.851562 C 30.027344 3.851562 30.484375 3.78125 30.660156 3.886719 C 30.835938 3.992188 31.011719 4.453125 31.15625 4.804688 C 31.332031 5.296875 31.578125 5.898438 32 6.285156 C 32.460938 6.671875 33.058594 6.777344 33.625 6.886719 C 34.011719 6.957031 34.46875 7.027344 34.609375 7.203125 C 34.753906 7.34375 34.753906 7.835938 34.753906 8.226562 C 34.753906 8.789062 34.753906 9.390625 35.070312 9.917969 C 35.351562 10.414062 35.917969 10.730469 36.375 11.011719 C 36.691406 11.222656 37.117188 11.433594 37.1875 11.648438 C 37.257812 11.824219 37.082031 12.28125 36.972656 12.632812 C 36.796875 13.164062 36.585938 13.726562 36.691406 14.328125 C 36.796875 14.890625 37.1875 15.386719 37.539062 15.773438 C 37.785156 16.054688 38.101562 16.445312 38.101562 16.65625 C 38.101562 16.867188 37.785156 17.253906 37.539062 17.539062 C 37.1875 17.960938 36.796875 18.417969 36.691406 18.984375 C 36.585938 19.582031 36.796875 20.148438 36.972656 20.675781 C 37.117188 21.027344 37.257812 21.488281 37.1875 21.664062 C 37.117188 21.875 36.691406 22.085938 36.375 22.296875 C 35.917969 22.582031 35.351562 22.898438 35.070312 23.390625 C 34.789062 23.921875 34.753906 24.519531 34.753906 25.085938 C 34.753906 25.472656 34.753906 25.933594 34.609375 26.109375 C 34.46875 26.25 34.011719 26.355469 33.625 26.425781 C 33.09375 26.53125 32.460938 26.636719 32 27.023438 C 31.542969 27.414062 31.332031 27.976562 31.15625 28.507812 C 31.011719 28.859375 30.835938 29.316406 30.660156 29.421875 C 30.484375 29.53125 30.027344 29.457031 29.636719 29.386719 C 29.109375 29.28125 28.472656 29.210938 27.910156 29.386719 C 27.34375 29.601562 26.957031 30.058594 26.605469 30.445312 C 26.359375 30.730469 26.039062 31.117188 25.828125 31.152344 C 25.652344 31.082031 25.230469 30.835938 24.875 30.660156 Z M 24.875 30.660156 " fill-opacity="1" fill-rule="nonzero"/></g><path fill="#272222" d="M 33.128906 16.585938 C 33.128906 11.152344 28.683594 6.707031 23.253906 6.707031 C 17.820312 6.707031 13.378906 11.152344 13.378906 16.585938 C 13.378906 22.015625 17.820312 26.460938 23.253906 26.460938 C 28.683594 26.460938 33.128906 22.015625 33.128906 16.585938 Z M 23.253906 25.050781 C 18.597656 25.050781 14.789062 21.242188 14.789062 16.585938 C 14.789062 11.929688 18.597656 8.121094 23.253906 8.121094 C 27.910156 8.121094 31.71875 11.929688 31.71875 16.585938 C 31.71875 21.242188 27.910156 25.050781 23.253906 25.050781 Z M 23.253906 25.050781 " fill-opacity="1" fill-rule="nonzero"/><path fill="#272222" d="M 29.214844 14.855469 C 29.144531 14.609375 28.898438 14.398438 28.648438 14.363281 L 25.371094 13.902344 L 23.886719 10.976562 C 23.78125 10.730469 23.535156 10.589844 23.253906 10.589844 C 22.972656 10.589844 22.757812 10.730469 22.617188 10.976562 L 21.136719 13.902344 L 17.855469 14.363281 C 17.574219 14.398438 17.363281 14.574219 17.292969 14.855469 C 17.222656 15.101562 17.292969 15.386719 17.46875 15.597656 L 19.832031 17.855469 L 19.269531 21.0625 C 19.234375 21.3125 19.339844 21.59375 19.550781 21.769531 C 19.761719 21.910156 20.042969 21.945312 20.289062 21.839844 L 23.253906 20.324219 C 23.253906 20.324219 26.214844 21.839844 26.214844 21.839844 C 26.464844 21.945312 26.746094 21.945312 26.957031 21.769531 C 27.167969 21.59375 27.273438 21.347656 27.238281 21.0625 L 26.675781 17.855469 L 29.039062 15.597656 C 29.214844 15.386719 29.285156 15.101562 29.214844 14.855469 Z M 25.40625 17.078125 C 25.230469 17.253906 25.160156 17.464844 25.195312 17.714844 L 25.582031 19.898438 C 25.582031 19.898438 23.570312 18.878906 23.570312 18.878906 C 23.359375 18.773438 23.113281 18.773438 22.9375 18.878906 L 20.925781 19.898438 L 21.3125 17.714844 C 21.347656 17.464844 21.277344 17.253906 21.101562 17.078125 L 19.515625 15.5625 L 21.738281 15.246094 C 21.949219 15.210938 22.160156 15.066406 22.265625 14.855469 L 23.253906 12.847656 L 24.242188 14.855469 C 24.347656 15.066406 24.558594 15.210938 24.769531 15.246094 L 26.992188 15.5625 Z M 25.40625 17.078125 " fill-opacity="1" fill-rule="nonzero"/><g clip-path="url(#e91f537dfd)"><g clip-path="url(#dd64389134)"><path fill="#ffffff" d="M 37.394531 28.460938 L 39.535156 28.460938 L 39.535156 30.601562 L 37.394531 30.601562 Z M 37.394531 28.460938 " fill-opacity="1" fill-rule="nonzero"/></g></g></svg>