<svg xmlns="http://www.w3.org/2000/svg" xmlns:xlink="http://www.w3.org/1999/xlink" width="63" zoomAndPan="magnify" viewBox="0 0 47.25 47.250001" height="63" preserveAspectRatio="xMidYMid meet" version="1.0"><defs><clipPath id="f2aa1c1be7"><path d="M 5.5 1 L 40.9375 1 L 40.9375 45.253906 L 5.5 45.253906 Z M 5.5 1 " clip-rule="nonzero"/></clipPath></defs><g clip-path="url(#f2aa1c1be7)"><path fill="#272222" d="M 40.953125 12.667969 L 40.953125 41.109375 C 40.953125 43.558594 38.960938 45.550781 36.511719 45.550781 L 9.90625 45.550781 C 7.457031 45.550781 5.464844 43.558594 5.464844 41.109375 L 5.464844 8.199219 C 5.464844 5.75 7.457031 3.757812 9.90625 3.757812 L 25.949219 3.757812 C 26.664062 3.757812 27.238281 4.332031 27.238281 5.046875 C 27.238281 5.757812 26.664062 6.335938 25.949219 6.335938 L 9.90625 6.335938 C 8.875 6.335938 8.042969 7.167969 8.042969 8.199219 L 8.042969 41.109375 C 8.042969 42.140625 8.875 42.972656 9.90625 42.972656 L 36.511719 42.972656 C 37.542969 42.972656 38.375 42.140625 38.375 41.109375 L 38.375 12.667969 C 38.375 11.953125 38.953125 11.378906 39.664062 11.378906 C 40.378906 11.378906 40.953125 11.953125 40.953125 12.667969 Z M 32.53125 20.203125 L 13.886719 20.203125 C 13.171875 20.203125 12.597656 20.777344 12.597656 21.492188 C 12.597656 22.207031 13.171875 22.78125 13.886719 22.78125 L 32.53125 22.78125 C 33.246094 22.78125 33.820312 22.207031 33.820312 21.492188 C 33.820312 20.777344 33.246094 20.203125 32.53125 20.203125 Z M 32.53125 30.550781 L 13.886719 30.550781 C 13.171875 30.550781 12.597656 31.125 12.597656 31.839844 C 12.597656 32.550781 13.171875 33.128906 13.886719 33.128906 L 32.53125 33.128906 C 33.246094 33.128906 33.820312 32.550781 33.820312 31.839844 C 33.820312 31.125 33.246094 30.550781 32.53125 30.550781 Z M 25.296875 15.152344 C 25.546875 15.410156 25.882812 15.539062 26.21875 15.539062 C 26.550781 15.539062 26.871094 15.417969 27.121094 15.167969 L 39.199219 3.25 C 39.707031 2.75 39.714844 1.933594 39.210938 1.429688 C 38.710938 0.921875 37.894531 0.914062 37.386719 1.417969 L 25.304688 13.335938 C 24.800781 13.835938 24.789062 14.652344 25.296875 15.160156 Z M 25.296875 15.152344 " fill-opacity="1" fill-rule="nonzero"/></g></svg>