<svg xmlns="http://www.w3.org/2000/svg" xmlns:xlink="http://www.w3.org/1999/xlink" width="63" zoomAndPan="magnify" viewBox="0 0 47.25 47.250001" height="63" preserveAspectRatio="xMidYMid meet" version="1.0"><defs><clipPath id="34424fe21f"><path d="M 5.601562 1.082031 L 41 1.082031 L 41 45.378906 L 5.601562 45.378906 Z M 5.601562 1.082031 " clip-rule="nonzero"/></clipPath></defs><path fill="#f59e72" d="M 40.335938 20.734375 C 40.335938 30.191406 32.671875 37.855469 23.210938 37.855469 C 13.753906 37.855469 6.089844 30.191406 6.089844 20.734375 C 6.089844 11.273438 13.753906 3.609375 23.210938 3.609375 C 32.671875 3.609375 40.335938 11.273438 40.335938 20.734375 Z M 40.335938 20.734375 " fill-opacity="1" fill-rule="nonzero"/><g clip-path="url(#34424fe21f)"><path fill="#272222" d="M 40.855469 12.726562 L 40.855469 41.007812 C 40.855469 43.441406 38.875 45.425781 36.4375 45.425781 L 9.988281 45.425781 C 7.550781 45.425781 5.570312 43.441406 5.570312 41.007812 L 5.570312 8.285156 C 5.570312 5.847656 7.550781 3.867188 9.988281 3.867188 L 25.9375 3.867188 C 26.648438 3.867188 27.21875 4.441406 27.21875 5.148438 C 27.21875 5.859375 26.648438 6.429688 25.9375 6.429688 L 9.988281 6.429688 C 8.960938 6.429688 8.132812 7.257812 8.132812 8.285156 L 8.132812 41.007812 C 8.132812 42.03125 8.960938 42.863281 9.988281 42.863281 L 36.4375 42.863281 C 37.464844 42.863281 38.292969 42.03125 38.292969 41.007812 L 38.292969 12.726562 C 38.292969 12.019531 38.863281 11.445312 39.574219 11.445312 C 40.28125 11.445312 40.855469 12.019531 40.855469 12.726562 Z M 32.484375 20.21875 L 13.941406 20.21875 C 13.234375 20.21875 12.660156 20.792969 12.660156 21.5 C 12.660156 22.210938 13.234375 22.785156 13.941406 22.785156 L 32.484375 22.785156 C 33.191406 22.785156 33.765625 22.210938 33.765625 21.5 C 33.765625 20.792969 33.191406 20.21875 32.484375 20.21875 Z M 32.484375 30.507812 L 13.941406 30.507812 C 13.234375 30.507812 12.660156 31.078125 12.660156 31.789062 C 12.660156 32.496094 13.234375 33.070312 13.941406 33.070312 L 32.484375 33.070312 C 33.191406 33.070312 33.765625 32.496094 33.765625 31.789062 C 33.765625 31.078125 33.191406 30.507812 32.484375 30.507812 Z M 25.289062 15.195312 C 25.535156 15.453125 25.871094 15.582031 26.203125 15.582031 C 26.535156 15.582031 26.851562 15.460938 27.101562 15.214844 L 39.113281 3.363281 C 39.617188 2.867188 39.625 2.054688 39.121094 1.550781 C 38.625 1.046875 37.8125 1.039062 37.308594 1.542969 L 25.296875 13.394531 C 24.792969 13.890625 24.785156 14.699219 25.289062 15.203125 Z M 25.289062 15.195312 " fill-opacity="1" fill-rule="nonzero"/></g></svg>