<svg xmlns="http://www.w3.org/2000/svg" xmlns:xlink="http://www.w3.org/1999/xlink" width="63" zoomAndPan="magnify" viewBox="0 0 47.25 47.250001" height="63" preserveAspectRatio="xMidYMid meet" version="1.0"><defs><clipPath id="686e3fd9a9"><path d="M 1.203125 1.035156 L 45.5 1.035156 L 45.5 45.332031 L 1.203125 45.332031 Z M 1.203125 1.035156 " clip-rule="nonzero"/></clipPath></defs><path fill="#f59e72" d="M 40.714844 20.640625 C 40.714844 30.285156 32.898438 38.101562 23.253906 38.101562 C 13.609375 38.101562 5.792969 30.285156 5.792969 20.640625 C 5.792969 10.996094 13.609375 3.179688 23.253906 3.179688 C 32.898438 3.179688 40.714844 10.996094 40.714844 20.640625 Z M 40.714844 20.640625 " fill-opacity="1" fill-rule="nonzero"/><g clip-path="url(#686e3fd9a9)"><path fill="#272222" d="M 43.128906 13.828125 C 44.445312 12.425781 45.191406 10.59375 45.191406 8.644531 C 45.191406 4.460938 41.792969 1.0625 37.613281 1.0625 C 35.582031 1.0625 33.699219 1.863281 32.28125 3.277344 C 29.464844 2.011719 26.363281 1.332031 23.246094 1.332031 C 11.082031 1.332031 1.183594 11.230469 1.183594 23.394531 C 1.183594 27.234375 2.175781 30.992188 4.066406 34.3125 L 1.664062 41.003906 C 1.261719 42.109375 1.472656 43.3125 2.230469 44.207031 C 2.996094 45.113281 4.148438 45.523438 5.296875 45.308594 L 14.480469 43.640625 C 17.234375 44.84375 20.179688 45.453125 23.238281 45.453125 C 35.410156 45.453125 45.304688 35.558594 45.304688 23.386719 C 45.304688 20.066406 44.546875 16.78125 43.117188 13.828125 Z M 37.613281 3.667969 C 40.347656 3.667969 42.578125 5.898438 42.578125 8.632812 C 42.578125 10.152344 41.898438 11.570312 40.707031 12.519531 C 39.824219 13.226562 38.761719 13.601562 37.613281 13.601562 C 34.875 13.601562 32.644531 11.371094 32.644531 8.632812 C 32.644531 7.554688 32.996094 6.515625 33.648438 5.644531 C 34.605469 4.390625 36.054688 3.667969 37.613281 3.667969 Z M 23.246094 42.839844 C 20.421875 42.839844 17.710938 42.257812 15.203125 41.097656 C 15.027344 41.019531 14.847656 40.976562 14.65625 40.976562 C 14.574219 40.976562 14.496094 40.976562 14.417969 40.992188 L 4.835938 42.726562 C 4.511719 42.789062 4.320312 42.613281 4.234375 42.511719 C 4.164062 42.421875 4.007812 42.195312 4.121094 41.875 L 6.734375 34.597656 C 6.863281 34.222656 6.820312 33.816406 6.621094 33.476562 C 4.773438 30.441406 3.796875 26.949219 3.796875 23.375 C 3.796875 12.652344 12.519531 3.929688 23.246094 3.929688 C 25.824219 3.929688 28.386719 4.445312 30.738281 5.429688 C 30.617188 5.679688 30.511719 5.941406 30.425781 6.210938 C 30.414062 6.238281 30.40625 6.265625 30.398438 6.289062 C 30.292969 6.605469 30.214844 6.933594 30.15625 7.265625 C 30.136719 7.363281 30.121094 7.449219 30.109375 7.546875 C 30.058594 7.902344 30.023438 8.269531 30.023438 8.632812 C 30.023438 12.816406 33.421875 16.214844 37.605469 16.214844 C 37.875 16.214844 38.136719 16.195312 38.40625 16.171875 C 38.484375 16.171875 38.554688 16.152344 38.625 16.144531 C 38.824219 16.117188 39.023438 16.082031 39.222656 16.039062 C 39.285156 16.023438 39.355469 16.015625 39.417969 15.996094 C 39.667969 15.9375 39.921875 15.867188 40.164062 15.777344 C 40.210938 15.761719 40.253906 15.742188 40.289062 15.726562 C 40.488281 15.648438 40.6875 15.5625 40.878906 15.472656 C 40.914062 15.457031 40.949219 15.449219 40.984375 15.429688 C 42.101562 17.914062 42.683594 20.640625 42.683594 23.394531 C 42.683594 34.121094 33.953125 42.851562 23.226562 42.851562 Z M 23.246094 42.839844 " fill-opacity="1" fill-rule="nonzero"/></g></svg>