<svg xmlns="http://www.w3.org/2000/svg" xmlns:xlink="http://www.w3.org/1999/xlink" width="63" zoomAndPan="magnify" viewBox="0 0 47.25 47.250001" height="63" preserveAspectRatio="xMidYMid meet" version="1.0"><defs><clipPath id="0340b6ef13"><path d="M 1.175781 1 L 45.472656 1 L 45.472656 45.296875 L 1.175781 45.296875 Z M 1.175781 1 " clip-rule="nonzero"/></clipPath></defs><g clip-path="url(#0340b6ef13)"><path fill="#a6a6a6" d="M 43.152344 13.8125 C 44.46875 12.410156 45.21875 10.578125 45.21875 8.621094 C 45.21875 4.433594 41.816406 1.03125 37.628906 1.03125 C 35.597656 1.03125 33.710938 1.835938 32.289062 3.246094 C 29.472656 1.984375 26.367188 1.300781 23.242188 1.300781 C 11.0625 1.300781 1.152344 11.214844 1.152344 23.394531 C 1.152344 27.242188 2.144531 31 4.039062 34.324219 L 1.632812 41.027344 C 1.230469 42.132812 1.4375 43.335938 2.199219 44.238281 C 2.964844 45.144531 4.117188 45.554688 5.269531 45.335938 L 14.464844 43.667969 C 17.222656 44.875 20.171875 45.484375 23.234375 45.484375 C 35.421875 45.484375 45.332031 35.574219 45.332031 23.382812 C 45.332031 20.058594 44.574219 16.769531 43.144531 13.8125 Z M 37.628906 3.640625 C 40.367188 3.640625 42.601562 5.875 42.601562 8.613281 C 42.601562 10.132812 41.921875 11.554688 40.726562 12.503906 C 39.84375 13.210938 38.78125 13.585938 37.628906 13.585938 C 34.890625 13.585938 32.65625 11.351562 32.65625 8.613281 C 32.65625 7.53125 33.003906 6.492188 33.660156 5.621094 C 34.621094 4.363281 36.066406 3.640625 37.628906 3.640625 Z M 23.242188 42.867188 C 20.414062 42.867188 17.703125 42.28125 15.1875 41.121094 C 15.015625 41.042969 14.832031 41 14.640625 41 C 14.5625 41 14.484375 41 14.402344 41.015625 L 4.808594 42.753906 C 4.484375 42.8125 4.292969 42.640625 4.203125 42.535156 C 4.136719 42.449219 3.976562 42.222656 4.089844 41.898438 L 6.710938 34.613281 C 6.839844 34.238281 6.796875 33.828125 6.59375 33.488281 C 4.746094 30.453125 3.769531 26.953125 3.769531 23.375 C 3.769531 12.636719 12.503906 3.902344 23.242188 3.902344 C 25.824219 3.902344 28.390625 4.417969 30.746094 5.402344 C 30.625 5.65625 30.519531 5.917969 30.429688 6.1875 C 30.421875 6.214844 30.414062 6.242188 30.40625 6.265625 C 30.300781 6.582031 30.222656 6.914062 30.160156 7.242188 C 30.144531 7.339844 30.125 7.425781 30.117188 7.523438 C 30.066406 7.878906 30.03125 8.246094 30.03125 8.613281 C 30.03125 12.800781 33.433594 16.203125 37.621094 16.203125 C 37.890625 16.203125 38.152344 16.1875 38.421875 16.160156 C 38.5 16.160156 38.570312 16.144531 38.640625 16.132812 C 38.84375 16.109375 39.042969 16.074219 39.242188 16.03125 C 39.304688 16.011719 39.375 16.003906 39.433594 15.984375 C 39.6875 15.925781 39.941406 15.855469 40.1875 15.769531 C 40.230469 15.75 40.273438 15.734375 40.308594 15.714844 C 40.507812 15.636719 40.710938 15.550781 40.902344 15.460938 C 40.9375 15.445312 40.972656 15.4375 41.003906 15.417969 C 42.121094 17.90625 42.707031 20.636719 42.707031 23.394531 C 42.707031 34.132812 33.964844 42.875 23.226562 42.875 Z M 23.242188 42.867188 " fill-opacity="1" fill-rule="nonzero"/></g></svg>