<svg xmlns="http://www.w3.org/2000/svg" xmlns:xlink="http://www.w3.org/1999/xlink" width="63" zoomAndPan="magnify" viewBox="0 0 47.25 47.250001" height="63" preserveAspectRatio="xMidYMid meet" version="1.0"><defs><clipPath id="c53847662a"><path d="M 4.023438 0.957031 L 42.414062 0.957031 L 42.414062 45.253906 L 4.023438 45.253906 Z M 4.023438 0.957031 " clip-rule="nonzero"/></clipPath></defs><g clip-path="url(#c53847662a)"><path fill="#272222" d="M 42.410156 12.738281 C 42.410156 12.738281 42.410156 12.710938 42.410156 12.703125 C 42.382812 12.589844 42.347656 12.484375 42.296875 12.386719 C 42.289062 12.363281 42.269531 12.34375 42.261719 12.320312 C 42.207031 12.222656 42.148438 12.132812 42.070312 12.054688 C 42.070312 12.054688 42.070312 12.046875 42.058594 12.039062 L 31.546875 1.308594 C 31.46875 1.230469 31.375 1.160156 31.269531 1.097656 C 31.242188 1.082031 31.222656 1.070312 31.199219 1.0625 C 31.023438 0.976562 30.820312 0.921875 30.613281 0.921875 L 9.003906 0.921875 C 6.234375 0.921875 3.992188 3.171875 3.992188 5.933594 L 3.992188 40.496094 C 3.992188 43.265625 6.242188 45.507812 9.003906 45.507812 L 37.417969 45.507812 C 40.183594 45.507812 42.429688 43.257812 42.429688 40.496094 L 42.429688 12.957031 C 42.429688 12.878906 42.417969 12.808594 42.402344 12.738281 Z M 37.996094 11.644531 L 33.605469 11.644531 C 32.679688 11.644531 31.925781 10.890625 31.925781 9.960938 L 31.925781 5.441406 Z M 39.808594 40.496094 C 39.808594 41.8125 38.738281 42.878906 37.425781 42.878906 L 9.011719 42.878906 C 7.695312 42.878906 6.628906 41.8125 6.628906 40.496094 L 6.628906 5.925781 C 6.628906 4.609375 7.695312 3.542969 9.011719 3.542969 L 29.304688 3.542969 L 29.304688 9.960938 C 29.304688 12.335938 31.242188 14.273438 33.617188 14.273438 L 39.816406 14.273438 L 39.816406 40.496094 Z M 39.808594 40.496094 " fill-opacity="1" fill-rule="nonzero"/></g></svg>