<svg xmlns="http://www.w3.org/2000/svg" xmlns:xlink="http://www.w3.org/1999/xlink" width="63" zoomAndPan="magnify" viewBox="0 0 47.25 47.250001" height="63" preserveAspectRatio="xMidYMid meet" version="1.0"><defs><clipPath id="c53ecc6809"><path d="M 4.023438 0.988281 L 42.414062 0.988281 L 42.414062 45.285156 L 4.023438 45.285156 Z M 4.023438 0.988281 " clip-rule="nonzero"/></clipPath></defs><path fill="#f59e72" d="M 40.742188 20.585938 C 40.742188 30.269531 32.894531 38.117188 23.210938 38.117188 C 13.527344 38.117188 5.679688 30.269531 5.679688 20.585938 C 5.679688 10.902344 13.527344 3.054688 23.210938 3.054688 C 32.894531 3.054688 40.742188 10.902344 40.742188 20.585938 Z M 40.742188 20.585938 " fill-opacity="1" fill-rule="nonzero"/><g clip-path="url(#c53ecc6809)"><path fill="#272222" d="M 42.386719 12.757812 C 42.386719 12.757812 42.386719 12.730469 42.386719 12.722656 C 42.359375 12.605469 42.324219 12.503906 42.273438 12.40625 C 42.261719 12.378906 42.246094 12.363281 42.238281 12.335938 C 42.183594 12.238281 42.125 12.152344 42.042969 12.074219 C 42.042969 12.074219 42.042969 12.066406 42.035156 12.054688 L 31.539062 1.339844 C 31.460938 1.261719 31.363281 1.191406 31.257812 1.128906 C 31.230469 1.113281 31.214844 1.105469 31.1875 1.09375 C 31.011719 1.007812 30.8125 0.953125 30.601562 0.953125 L 9.019531 0.953125 C 6.257812 0.953125 4.015625 3.203125 4.015625 5.957031 L 4.015625 40.480469 C 4.015625 43.242188 6.265625 45.484375 9.019531 45.484375 L 37.398438 45.484375 C 40.164062 45.484375 42.402344 43.234375 42.402344 40.480469 L 42.402344 12.976562 C 42.402344 12.894531 42.394531 12.824219 42.375 12.757812 Z M 37.976562 11.664062 L 33.59375 11.664062 C 32.667969 11.664062 31.914062 10.910156 31.914062 9.984375 L 31.914062 5.46875 Z M 39.789062 40.480469 C 39.789062 41.789062 38.71875 42.859375 37.40625 42.859375 L 9.027344 42.859375 C 7.71875 42.859375 6.648438 41.789062 6.648438 40.480469 L 6.648438 5.949219 C 6.648438 4.636719 7.71875 3.570312 9.027344 3.570312 L 29.296875 3.570312 L 29.296875 9.984375 C 29.296875 12.355469 31.230469 14.285156 33.601562 14.285156 L 39.796875 14.285156 L 39.796875 40.480469 Z M 39.789062 40.480469 " fill-opacity="1" fill-rule="nonzero"/></g></svg>