<svg xmlns="http://www.w3.org/2000/svg" xmlns:xlink="http://www.w3.org/1999/xlink" width="63" zoomAndPan="magnify" viewBox="0 0 47.25 47.250001" height="63" preserveAspectRatio="xMidYMid meet" version="1.0"><defs><clipPath id="4a317e76e4"><path d="M 1.179688 1.179688 L 45.476562 1.179688 L 45.476562 45.476562 L 1.179688 45.476562 Z M 1.179688 1.179688 " clip-rule="nonzero"/></clipPath></defs><g clip-path="url(#4a317e76e4)"><path fill="#272222" d="M 32.570312 41.96875 C 32.839844 42.613281 32.542969 43.363281 31.886719 43.644531 C 29.167969 44.792969 26.273438 45.378906 23.296875 45.378906 C 11.125 45.378906 1.214844 35.476562 1.214844 23.296875 C 1.214844 11.117188 11.117188 1.214844 23.296875 1.214844 C 24.003906 1.214844 24.574219 1.785156 24.574219 2.492188 C 24.574219 3.195312 24.003906 3.765625 23.296875 3.765625 C 12.527344 3.765625 3.765625 12.527344 3.765625 23.296875 C 3.765625 34.066406 12.527344 42.828125 23.296875 42.828125 C 25.933594 42.828125 28.496094 42.308594 30.902344 41.296875 C 31.546875 41.023438 32.296875 41.320312 32.578125 41.976562 Z M 41.960938 32.585938 C 41.347656 32.238281 40.574219 32.441406 40.214844 33.054688 C 38.871094 35.375 37.09375 37.367188 34.941406 38.972656 C 34.371094 39.390625 34.261719 40.191406 34.679688 40.761719 C 34.925781 41.101562 35.316406 41.269531 35.699219 41.269531 C 35.960938 41.269531 36.234375 41.1875 36.457031 41.015625 C 38.898438 39.203125 40.90625 36.949219 42.417969 34.320312 C 42.777344 33.707031 42.5625 32.933594 41.953125 32.578125 Z M 45.191406 20.414062 C 45.097656 19.714844 44.453125 19.214844 43.761719 19.316406 C 43.066406 19.410156 42.570312 20.046875 42.664062 20.746094 C 42.777344 21.585938 42.828125 22.445312 42.828125 23.296875 C 42.828125 25.117188 42.582031 26.921875 42.078125 28.65625 C 41.882812 29.335938 42.273438 30.042969 42.953125 30.230469 C 43.074219 30.265625 43.191406 30.28125 43.304688 30.28125 C 43.855469 30.28125 44.367188 29.914062 44.527344 29.355469 C 45.089844 27.390625 45.371094 25.347656 45.371094 23.289062 C 45.371094 22.328125 45.3125 21.359375 45.183594 20.414062 Z M 41.464844 16.117188 C 41.660156 16.621094 42.148438 16.925781 42.65625 16.925781 C 42.808594 16.925781 42.972656 16.902344 43.125 16.832031 C 43.78125 16.578125 44.101562 15.828125 43.839844 15.175781 C 42.726562 12.359375 41.074219 9.832031 38.921875 7.679688 C 38.421875 7.179688 37.613281 7.179688 37.121094 7.679688 C 36.617188 8.183594 36.617188 8.988281 37.121094 9.484375 C 39.023438 11.386719 40.488281 13.617188 41.464844 16.109375 Z M 35.105469 6.105469 C 35.46875 5.503906 35.273438 4.71875 34.671875 4.355469 C 32.066406 2.789062 29.21875 1.792969 26.207031 1.394531 C 25.507812 1.300781 24.871094 1.792969 24.777344 2.492188 C 24.683594 3.1875 25.175781 3.828125 25.875 3.921875 C 28.535156 4.269531 31.054688 5.152344 33.351562 6.539062 C 33.554688 6.667969 33.785156 6.71875 34.007812 6.71875 C 34.441406 6.71875 34.867188 6.496094 35.105469 6.097656 Z M 32.925781 28.859375 L 24.574219 22.640625 L 24.574219 12.714844 C 24.574219 12.007812 24.003906 11.441406 23.296875 11.441406 C 22.589844 11.441406 22.019531 12.007812 22.019531 12.714844 L 22.019531 23.925781 L 31.402344 30.910156 C 31.632812 31.082031 31.898438 31.164062 32.160156 31.164062 C 32.550781 31.164062 32.933594 30.988281 33.179688 30.65625 C 33.597656 30.09375 33.488281 29.292969 32.917969 28.867188 Z M 32.925781 28.859375 " fill-opacity="1" fill-rule="nonzero"/></g></svg>