<svg xmlns="http://www.w3.org/2000/svg" xmlns:xlink="http://www.w3.org/1999/xlink" width="63" zoomAndPan="magnify" viewBox="0 0 47.25 47.250001" height="63" preserveAspectRatio="xMidYMid meet" version="1.0"><defs><clipPath id="960d8776be"><path d="M 1.285156 1.148438 L 45.582031 1.148438 L 45.582031 45.445312 L 1.285156 45.445312 Z M 1.285156 1.148438 " clip-rule="nonzero"/></clipPath></defs><g clip-path="url(#960d8776be)"><path fill="#a6a6a6" d="M 16.304688 22.371094 C 22.164062 22.371094 26.921875 17.605469 26.921875 11.753906 C 26.921875 5.90625 22.15625 1.136719 16.304688 1.136719 C 10.453125 1.136719 5.6875 5.90625 5.6875 11.753906 C 5.6875 17.605469 10.453125 22.371094 16.304688 22.371094 Z M 16.304688 3.730469 C 20.726562 3.730469 24.320312 7.328125 24.320312 11.746094 C 24.320312 16.167969 20.726562 19.761719 16.304688 19.761719 C 11.886719 19.761719 8.289062 16.167969 8.289062 11.746094 C 8.289062 7.328125 11.886719 3.730469 16.304688 3.730469 Z M 19.460938 24.425781 L 13.140625 24.425781 C 6.625 24.425781 1.320312 29.730469 1.320312 36.246094 L 1.320312 38.5 C 1.320312 42.289062 4.398438 45.363281 8.183594 45.363281 L 24.417969 45.363281 C 28.203125 45.363281 31.28125 42.289062 31.28125 38.5 L 31.28125 36.246094 C 31.28125 29.730469 25.976562 24.425781 19.460938 24.425781 Z M 28.679688 38.5 C 28.679688 40.847656 26.765625 42.765625 24.417969 42.765625 L 8.183594 42.765625 C 5.835938 42.765625 3.921875 40.847656 3.921875 38.5 L 3.921875 36.246094 C 3.921875 31.160156 8.054688 27.027344 13.140625 27.027344 L 19.460938 27.027344 C 24.546875 27.027344 28.679688 31.160156 28.679688 36.246094 Z M 45.257812 18.730469 C 45.257812 19.449219 44.679688 20.03125 43.960938 20.03125 L 38.265625 20.03125 L 38.265625 25.726562 C 38.265625 26.445312 37.683594 27.027344 36.964844 27.027344 C 36.246094 27.027344 35.664062 26.445312 35.664062 25.726562 L 35.664062 20.03125 L 29.972656 20.03125 C 29.253906 20.03125 28.671875 19.449219 28.671875 18.730469 C 28.671875 18.011719 29.253906 17.433594 29.972656 17.433594 L 35.664062 17.433594 L 35.664062 11.738281 C 35.664062 11.019531 36.246094 10.4375 36.964844 10.4375 C 37.683594 10.4375 38.265625 11.019531 38.265625 11.738281 L 38.265625 17.433594 L 43.960938 17.433594 C 44.679688 17.433594 45.257812 18.011719 45.257812 18.730469 Z M 45.257812 18.730469 " fill-opacity="1" fill-rule="nonzero"/></g></svg>