<svg xmlns="http://www.w3.org/2000/svg" xmlns:xlink="http://www.w3.org/1999/xlink" width="63" zoomAndPan="magnify" viewBox="0 0 47.25 47.250001" height="63" preserveAspectRatio="xMidYMid meet" version="1.0"><defs><clipPath id="3261fdd9b7"><path d="M 1.175781 1.035156 L 45.472656 1.035156 L 45.472656 45.332031 L 1.175781 45.332031 Z M 1.175781 1.035156 " clip-rule="nonzero"/></clipPath></defs><path fill="#f59e72" d="M 40.753906 20.640625 C 40.753906 30.28125 32.941406 38.09375 23.296875 38.09375 C 13.65625 38.09375 5.84375 30.28125 5.84375 20.640625 C 5.84375 11 13.65625 3.1875 23.296875 3.1875 C 32.941406 3.1875 40.753906 11 40.753906 20.640625 Z M 40.753906 20.640625 " fill-opacity="1" fill-rule="nonzero"/><g clip-path="url(#3261fdd9b7)"><path fill="#272222" d="M 16.269531 22.367188 C 22.15625 22.367188 26.9375 17.574219 26.9375 11.695312 C 26.9375 5.816406 22.148438 1.027344 16.269531 1.027344 C 10.390625 1.027344 5.601562 5.816406 5.601562 11.695312 C 5.601562 17.574219 10.390625 22.367188 16.269531 22.367188 Z M 16.269531 3.632812 C 20.710938 3.632812 24.324219 7.246094 24.324219 11.6875 C 24.324219 16.128906 20.710938 19.742188 16.269531 19.742188 C 11.828125 19.742188 8.210938 16.128906 8.210938 11.6875 C 8.210938 7.246094 11.828125 3.632812 16.269531 3.632812 Z M 19.441406 24.429688 L 13.089844 24.429688 C 6.539062 24.429688 1.210938 29.761719 1.210938 36.308594 L 1.210938 38.574219 C 1.210938 42.378906 4.300781 45.472656 8.109375 45.472656 L 24.421875 45.472656 C 28.226562 45.472656 31.320312 42.378906 31.320312 38.574219 L 31.320312 36.308594 C 31.320312 29.761719 25.988281 24.429688 19.441406 24.429688 Z M 28.707031 38.574219 C 28.707031 40.933594 26.78125 42.859375 24.421875 42.859375 L 8.109375 42.859375 C 5.746094 42.859375 3.824219 40.933594 3.824219 38.574219 L 3.824219 36.308594 C 3.824219 31.199219 7.976562 27.042969 13.089844 27.042969 L 19.441406 27.042969 C 24.550781 27.042969 28.707031 31.199219 28.707031 36.308594 Z M 45.367188 18.707031 C 45.367188 19.429688 44.785156 20.015625 44.0625 20.015625 L 38.339844 20.015625 L 38.339844 25.734375 C 38.339844 26.460938 37.757812 27.042969 37.035156 27.042969 C 36.308594 27.042969 35.726562 26.460938 35.726562 25.734375 L 35.726562 20.015625 L 30.003906 20.015625 C 29.28125 20.015625 28.699219 19.429688 28.699219 18.707031 C 28.699219 17.984375 29.28125 17.402344 30.003906 17.402344 L 35.726562 17.402344 L 35.726562 11.679688 C 35.726562 10.957031 36.308594 10.371094 37.035156 10.371094 C 37.757812 10.371094 38.339844 10.957031 38.339844 11.679688 L 38.339844 17.402344 L 44.0625 17.402344 C 44.785156 17.402344 45.367188 17.984375 45.367188 18.707031 Z M 45.367188 18.707031 " fill-opacity="1" fill-rule="nonzero"/></g></svg>