<svg xmlns="http://www.w3.org/2000/svg" xmlns:xlink="http://www.w3.org/1999/xlink" width="63" zoomAndPan="magnify" viewBox="0 0 47.25 47.250001" height="63" preserveAspectRatio="xMidYMid meet" version="1.0"><defs><clipPath id="272a737435"><path d="M 1.019531 3 L 45.316406 3 L 45.316406 43.835938 L 1.019531 43.835938 Z M 1.019531 3 " clip-rule="nonzero"/></clipPath></defs><g clip-path="url(#272a737435)"><path fill="#a6a6a6" d="M 44.761719 22.957031 L 43.4375 20.722656 C 42.273438 18.757812 39.734375 18.109375 37.769531 19.277344 C 37.371094 19.515625 36.898438 19.578125 36.453125 19.46875 C 36.003906 19.355469 35.621094 19.066406 35.390625 18.667969 L 33.425781 15.355469 C 33.1875 14.957031 33.125 14.484375 33.234375 14.039062 C 33.347656 13.589844 33.632812 13.207031 34.035156 12.976562 C 34.984375 12.410156 35.660156 11.515625 35.933594 10.445312 C 36.203125 9.375 36.046875 8.265625 35.488281 7.316406 L 34.160156 5.082031 C 32.996094 3.117188 30.457031 2.46875 28.492188 3.636719 L 3.597656 18.398438 C 1.636719 19.5625 0.988281 22.101562 2.152344 24.066406 L 3.480469 26.300781 C 4.644531 28.265625 7.183594 28.914062 9.148438 27.746094 C 9.546875 27.507812 10.019531 27.441406 10.464844 27.554688 C 10.914062 27.667969 11.296875 27.953125 11.535156 28.351562 L 13.5 31.667969 C 13.984375 32.488281 13.714844 33.558594 12.890625 34.054688 C 11.941406 34.621094 11.269531 35.515625 10.992188 36.585938 C 10.71875 37.65625 10.878906 38.765625 11.4375 39.714844 L 12.765625 41.949219 C 13.539062 43.25 14.910156 43.976562 16.324219 43.976562 C 17.042969 43.976562 17.769531 43.792969 18.425781 43.402344 L 43.320312 28.640625 C 44.269531 28.074219 44.945312 27.179688 45.21875 26.109375 C 45.488281 25.039062 45.332031 23.929688 44.773438 22.980469 Z M 42.894531 25.496094 C 42.785156 25.941406 42.496094 26.324219 42.097656 26.558594 C 42.097656 26.558594 25.355469 36.480469 25.355469 36.480469 C 25.339844 36.320312 25.28125 36.160156 25.195312 36.019531 L 22.488281 31.449219 C 22.152344 30.882812 21.417969 30.691406 20.851562 31.027344 C 20.285156 31.363281 20.09375 32.097656 20.429688 32.664062 L 23.136719 37.230469 C 23.222656 37.382812 23.34375 37.496094 23.480469 37.589844 L 17.203125 41.3125 C 16.375 41.796875 15.304688 41.527344 14.816406 40.703125 L 13.492188 38.46875 C 13.003906 37.648438 13.277344 36.578125 14.097656 36.082031 C 16.0625 34.917969 16.707031 32.378906 15.542969 30.414062 L 13.578125 27.101562 C 13.011719 26.148438 12.117188 25.480469 11.046875 25.199219 C 10.703125 25.113281 10.359375 25.070312 10.019531 25.070312 C 9.285156 25.070312 8.566406 25.273438 7.917969 25.65625 C 7.097656 26.140625 6.027344 25.871094 5.53125 25.046875 L 4.207031 22.8125 C 3.71875 21.992188 3.988281 20.914062 4.8125 20.425781 L 11.511719 16.457031 C 11.3125 16.816406 11.296875 17.273438 11.519531 17.65625 L 14.226562 22.222656 C 14.449219 22.597656 14.847656 22.8125 15.253906 22.8125 C 15.464844 22.8125 15.671875 22.757812 15.863281 22.644531 C 16.429688 22.308594 16.621094 21.574219 16.285156 21.007812 L 13.578125 16.441406 C 13.355469 16.058594 12.949219 15.859375 12.53125 15.859375 L 29.707031 5.679688 C 30.527344 5.191406 31.597656 5.464844 32.09375 6.285156 L 33.417969 8.523438 C 33.65625 8.921875 33.722656 9.390625 33.609375 9.839844 C 33.5 10.285156 33.210938 10.667969 32.8125 10.910156 C 31.863281 11.476562 31.191406 12.371094 30.910156 13.441406 C 30.632812 14.507812 30.800781 15.621094 31.359375 16.570312 L 33.324219 19.882812 C 33.890625 20.832031 34.785156 21.503906 35.855469 21.78125 C 36.921875 22.054688 38.042969 21.894531 38.984375 21.335938 C 39.804688 20.847656 40.875 21.121094 41.371094 21.941406 L 42.695312 24.1875 C 42.933594 24.585938 43 25.054688 42.886719 25.503906 Z M 20.742188 28.511719 C 21.074219 29.078125 20.890625 29.8125 20.316406 30.148438 C 20.125 30.261719 19.917969 30.316406 19.710938 30.316406 C 19.304688 30.316406 18.902344 30.109375 18.679688 29.726562 L 15.972656 25.160156 C 15.636719 24.59375 15.820312 23.859375 16.398438 23.523438 C 16.964844 23.1875 17.699219 23.371094 18.035156 23.945312 Z M 20.742188 28.511719 " fill-opacity="1" fill-rule="nonzero"/></g></svg>