<svg xmlns="http://www.w3.org/2000/svg" xmlns:xlink="http://www.w3.org/1999/xlink" width="63" zoomAndPan="magnify" viewBox="0 0 47.25 47.250001" height="63" preserveAspectRatio="xMidYMid meet" version="1.0"><defs><clipPath id="292a844755"><path d="M 1.222656 3 L 45.519531 3 L 45.519531 44 L 1.222656 44 Z M 1.222656 3 " clip-rule="nonzero"/></clipPath></defs><path fill="#f59e72" d="M 39.296875 21.113281 C 39.296875 29.871094 32.203125 36.964844 23.449219 36.964844 C 14.691406 36.964844 7.597656 29.871094 7.597656 21.113281 C 7.597656 12.359375 14.691406 5.265625 23.449219 5.265625 C 32.203125 5.265625 39.296875 12.359375 39.296875 21.113281 Z M 39.296875 21.113281 " fill-opacity="1" fill-rule="nonzero"/><g clip-path="url(#292a844755)"><path fill="#272222" d="M 44.558594 22.957031 L 43.246094 20.742188 C 42.089844 18.796875 39.574219 18.15625 37.628906 19.3125 C 37.234375 19.550781 36.765625 19.613281 36.324219 19.5 C 35.882812 19.390625 35.5 19.105469 35.273438 18.710938 L 33.328125 15.429688 C 33.089844 15.03125 33.027344 14.566406 33.136719 14.125 C 33.246094 13.679688 33.53125 13.300781 33.925781 13.070312 C 34.867188 12.511719 35.542969 11.625 35.808594 10.5625 C 36.078125 9.503906 35.921875 8.40625 35.367188 7.464844 L 34.054688 5.25 C 32.898438 3.304688 30.382812 2.664062 28.4375 3.816406 L 3.777344 18.441406 C 1.832031 19.597656 1.191406 22.113281 2.347656 24.058594 L 3.660156 26.273438 C 4.8125 28.21875 7.328125 28.859375 9.273438 27.703125 C 9.671875 27.464844 10.136719 27.402344 10.578125 27.515625 C 11.023438 27.625 11.402344 27.910156 11.640625 28.304688 L 13.585938 31.585938 C 14.066406 32.402344 13.796875 33.460938 12.984375 33.953125 C 12.042969 34.511719 11.378906 35.398438 11.101562 36.460938 C 10.832031 37.519531 10.992188 38.617188 11.542969 39.558594 L 12.859375 41.773438 C 13.625 43.0625 14.984375 43.78125 16.386719 43.78125 C 17.097656 43.78125 17.816406 43.601562 18.464844 43.214844 L 43.125 28.589844 C 44.066406 28.027344 44.738281 27.140625 45.007812 26.082031 C 45.277344 25.023438 45.121094 23.921875 44.566406 22.980469 Z M 42.707031 25.472656 C 42.597656 25.917969 42.3125 26.296875 41.917969 26.523438 C 41.917969 26.523438 25.332031 36.355469 25.332031 36.355469 C 25.316406 36.199219 25.257812 36.039062 25.171875 35.898438 L 22.492188 31.375 C 22.160156 30.8125 21.429688 30.621094 20.871094 30.953125 C 20.308594 31.285156 20.117188 32.015625 20.449219 32.574219 L 23.132812 37.101562 C 23.21875 37.25 23.335938 37.359375 23.472656 37.457031 L 17.253906 41.140625 C 16.433594 41.625 15.371094 41.355469 14.890625 40.539062 L 13.578125 38.324219 C 13.09375 37.511719 13.363281 36.453125 14.179688 35.960938 C 16.125 34.804688 16.765625 32.289062 15.609375 30.34375 L 13.664062 27.0625 C 13.101562 26.121094 12.214844 25.457031 11.15625 25.179688 C 10.816406 25.09375 10.476562 25.054688 10.136719 25.054688 C 9.410156 25.054688 8.695312 25.25 8.054688 25.632812 C 7.242188 26.113281 6.183594 25.84375 5.691406 25.03125 L 4.378906 22.816406 C 3.894531 22 4.164062 20.933594 4.980469 20.449219 L 11.617188 16.519531 C 11.417969 16.875 11.402344 17.328125 11.625 17.707031 L 14.304688 22.230469 C 14.527344 22.601562 14.921875 22.816406 15.324219 22.816406 C 15.53125 22.816406 15.738281 22.761719 15.925781 22.648438 C 16.488281 22.316406 16.675781 21.589844 16.34375 21.027344 L 13.664062 16.503906 C 13.441406 16.125 13.039062 15.925781 12.628906 15.925781 L 29.640625 5.84375 C 30.457031 5.359375 31.515625 5.628906 32.003906 6.445312 L 33.320312 8.65625 C 33.554688 9.054688 33.621094 9.519531 33.507812 9.964844 C 33.398438 10.40625 33.113281 10.785156 32.71875 11.023438 C 31.777344 11.585938 31.113281 12.46875 30.835938 13.53125 C 30.558594 14.589844 30.722656 15.6875 31.277344 16.628906 L 33.222656 19.914062 C 33.785156 20.855469 34.671875 21.519531 35.730469 21.796875 C 36.789062 22.0625 37.898438 21.90625 38.832031 21.351562 C 39.644531 20.871094 40.707031 21.140625 41.195312 21.953125 L 42.507812 24.175781 C 42.746094 24.570312 42.808594 25.039062 42.699219 25.480469 Z M 20.757812 28.460938 C 21.089844 29.023438 20.910156 29.753906 20.339844 30.085938 C 20.148438 30.195312 19.945312 30.25 19.738281 30.25 C 19.335938 30.25 18.941406 30.042969 18.71875 29.664062 L 16.035156 25.140625 C 15.703125 24.578125 15.886719 23.851562 16.457031 23.519531 C 17.019531 23.1875 17.746094 23.371094 18.078125 23.9375 Z M 20.757812 28.460938 " fill-opacity="1" fill-rule="nonzero"/></g></svg>