<svg xmlns="http://www.w3.org/2000/svg" xmlns:xlink="http://www.w3.org/1999/xlink" width="63" zoomAndPan="magnify" viewBox="0 0 47.25 47.250001" height="63" preserveAspectRatio="xMidYMid meet" version="1.0"><defs><clipPath id="14f796726e"><path d="M 1.179688 1.179688 L 45.476562 1.179688 L 45.476562 45.476562 L 1.179688 45.476562 Z M 1.179688 1.179688 " clip-rule="nonzero"/></clipPath></defs><g clip-path="url(#14f796726e)"><path fill="#a6a6a6" d="M 37.402344 1.207031 L 9.1875 1.207031 C 4.78125 1.207031 1.199219 4.789062 1.199219 9.195312 L 1.199219 37.410156 C 1.199219 41.816406 4.78125 45.398438 9.1875 45.398438 L 37.402344 45.398438 C 41.808594 45.398438 45.390625 41.816406 45.390625 37.410156 L 45.390625 9.195312 C 45.390625 4.789062 41.808594 1.207031 37.402344 1.207031 Z M 42.757812 37.410156 C 42.757812 40.359375 40.351562 42.765625 37.402344 42.765625 L 9.1875 42.765625 C 6.238281 42.765625 3.832031 40.359375 3.832031 37.410156 L 3.832031 9.195312 C 3.832031 6.246094 6.238281 3.839844 9.1875 3.839844 L 37.402344 3.839844 C 40.351562 3.839844 42.757812 6.246094 42.757812 9.195312 Z M 29.160156 32.8125 C 29.160156 33.542969 28.574219 34.128906 27.84375 34.128906 L 18.742188 34.128906 C 18.015625 34.128906 17.425781 33.542969 17.425781 32.8125 C 17.425781 32.085938 18.015625 31.496094 18.742188 31.496094 L 21.980469 31.496094 L 21.980469 17.855469 C 21.980469 17.128906 22.570312 16.539062 23.296875 16.539062 C 24.027344 16.539062 24.613281 17.128906 24.613281 17.855469 L 24.613281 31.496094 L 27.855469 31.496094 C 28.582031 31.496094 29.171875 32.085938 29.171875 32.8125 Z M 21.246094 12.214844 C 21.246094 11.082031 22.15625 10.167969 23.289062 10.167969 C 24.421875 10.167969 25.335938 11.082031 25.335938 12.214844 C 25.335938 13.347656 24.421875 14.257812 23.289062 14.257812 C 22.15625 14.257812 21.246094 13.347656 21.246094 12.214844 Z M 21.246094 12.214844 " fill-opacity="1" fill-rule="nonzero"/></g></svg>