<svg xmlns="http://www.w3.org/2000/svg" xmlns:xlink="http://www.w3.org/1999/xlink" width="63" zoomAndPan="magnify" viewBox="0 0 47.25 47.250001" height="63" preserveAspectRatio="xMidYMid meet" version="1.0"><defs><clipPath id="596fbaf848"><path d="M 0.921875 0.921875 L 45.957031 0.921875 L 45.957031 45.957031 L 0.921875 45.957031 Z M 0.921875 0.921875 " clip-rule="nonzero"/></clipPath></defs><path fill="#f59e72" d="M 41.09375 20.636719 C 41.09375 30.464844 33.128906 38.433594 23.300781 38.433594 C 13.46875 38.433594 5.503906 30.464844 5.503906 20.636719 C 5.503906 10.804688 13.46875 2.839844 23.300781 2.839844 C 33.128906 2.839844 41.09375 10.804688 41.09375 20.636719 Z M 41.09375 20.636719 " fill-opacity="1" fill-rule="nonzero"/><g clip-path="url(#596fbaf848)"><path fill="#272222" d="M 37.570312 0.949219 L 9.019531 0.949219 C 4.5625 0.949219 0.941406 4.574219 0.941406 9.03125 L 0.941406 37.578125 C 0.941406 42.035156 4.5625 45.660156 9.019531 45.660156 L 37.570312 45.660156 C 42.027344 45.660156 45.652344 42.035156 45.652344 37.578125 L 45.652344 9.03125 C 45.652344 4.574219 42.027344 0.949219 37.570312 0.949219 Z M 42.988281 37.578125 C 42.988281 40.5625 40.554688 42.996094 37.570312 42.996094 L 9.019531 42.996094 C 6.039062 42.996094 3.605469 40.5625 3.605469 37.578125 L 3.605469 9.03125 C 3.605469 6.046875 6.039062 3.613281 9.019531 3.613281 L 37.570312 3.613281 C 40.554688 3.613281 42.988281 6.046875 42.988281 9.03125 Z M 29.230469 32.925781 C 29.230469 33.664062 28.636719 34.257812 27.898438 34.257812 L 18.691406 34.257812 C 17.953125 34.257812 17.359375 33.664062 17.359375 32.925781 C 17.359375 32.1875 17.953125 31.59375 18.691406 31.59375 L 21.96875 31.59375 L 21.96875 17.792969 C 21.96875 17.058594 22.5625 16.460938 23.300781 16.460938 C 24.039062 16.460938 24.632812 17.058594 24.632812 17.792969 L 24.632812 31.59375 L 27.910156 31.59375 C 28.644531 31.59375 29.242188 32.1875 29.242188 32.925781 Z M 21.222656 12.085938 C 21.222656 10.9375 22.144531 10.015625 23.292969 10.015625 C 24.4375 10.015625 25.359375 10.9375 25.359375 12.085938 C 25.359375 13.230469 24.4375 14.152344 23.292969 14.152344 C 22.144531 14.152344 21.222656 13.230469 21.222656 12.085938 Z M 21.222656 12.085938 " fill-opacity="1" fill-rule="nonzero"/></g></svg>