<svg xmlns="http://www.w3.org/2000/svg" xmlns:xlink="http://www.w3.org/1999/xlink" width="63" zoomAndPan="magnify" viewBox="0 0 47.25 47.250001" height="63" preserveAspectRatio="xMidYMid meet" version="1.0"><defs><clipPath id="d4972caa76"><path d="M 1.214844 1.214844 L 45.511719 1.214844 L 45.511719 45.511719 L 1.214844 45.511719 Z M 1.214844 1.214844 " clip-rule="nonzero"/></clipPath></defs><g clip-path="url(#d4972caa76)"><path fill="#272222" d="M 45.289062 23.25 C 45.289062 35.421875 35.421875 45.289062 23.25 45.289062 C 11.078125 45.289062 1.214844 35.421875 1.214844 23.25 C 1.214844 11.078125 11.078125 1.210938 23.25 1.210938 C 35.421875 1.210938 45.289062 11.078125 45.289062 23.25 Z M 45.289062 23.25 " fill-opacity="1" fill-rule="nonzero"/></g><path fill="#c5d3cc" d="M 14.929688 12.273438 L 32.015625 12.273438 C 33.640625 12.273438 34.964844 13.601562 34.964844 15.226562 L 34.964844 32.308594 C 34.964844 33.933594 33.640625 35.257812 32.015625 35.257812 L 14.929688 35.257812 C 13.308594 35.257812 11.980469 33.933594 11.980469 32.308594 L 11.980469 15.226562 C 11.980469 13.601562 13.308594 12.273438 14.929688 12.273438 Z M 28.726562 14.828125 C 28.15625 14.828125 27.691406 15.292969 27.691406 15.863281 L 27.691406 18.339844 C 27.691406 18.910156 28.15625 19.375 28.726562 19.375 L 31.324219 19.375 C 31.890625 19.375 32.359375 18.910156 32.359375 18.339844 L 32.359375 15.863281 C 32.359375 15.292969 31.890625 14.828125 31.324219 14.828125 Z M 32.367188 21.992188 L 30.34375 21.992188 C 30.535156 22.621094 30.640625 23.28125 30.640625 23.96875 C 30.640625 27.789062 27.441406 30.890625 23.496094 30.890625 C 19.546875 30.890625 16.347656 27.789062 16.347656 23.96875 C 16.347656 23.28125 16.453125 22.621094 16.644531 21.992188 L 14.535156 21.992188 L 14.535156 31.707031 C 14.535156 32.207031 14.945312 32.617188 15.449219 32.617188 L 31.453125 32.617188 C 31.957031 32.617188 32.367188 32.207031 32.367188 31.707031 Z M 23.496094 19.242188 C 20.945312 19.242188 18.878906 21.246094 18.878906 23.71875 C 18.878906 26.1875 20.945312 28.191406 23.496094 28.191406 C 26.042969 28.191406 28.113281 26.1875 28.113281 23.71875 C 28.113281 21.246094 26.042969 19.242188 23.496094 19.242188 Z M 23.496094 19.242188 " fill-opacity="1" fill-rule="nonzero"/></svg>