<svg xmlns="http://www.w3.org/2000/svg" xmlns:xlink="http://www.w3.org/1999/xlink" width="63" zoomAndPan="magnify" viewBox="0 0 47.25 47.250001" height="63" preserveAspectRatio="xMidYMid meet" version="1.0"><defs><clipPath id="972ba87455"><path d="M 31.488281 27.574219 L 33.628906 27.574219 L 33.628906 29.714844 L 31.488281 29.714844 Z M 31.488281 27.574219 " clip-rule="nonzero"/></clipPath><clipPath id="51e892b96e"><path d="M 32.558594 27.574219 C 31.96875 27.574219 31.488281 28.054688 31.488281 28.644531 C 31.488281 29.238281 31.96875 29.714844 32.558594 29.714844 C 33.148438 29.714844 33.628906 29.238281 33.628906 28.644531 C 33.628906 28.054688 33.148438 27.574219 32.558594 27.574219 Z M 32.558594 27.574219 " clip-rule="nonzero"/></clipPath><clipPath id="4209591bb7"><path d="M 1.039062 5.679688 L 45.335938 5.679688 L 45.335938 41 L 1.039062 41 Z M 1.039062 5.679688 " clip-rule="nonzero"/></clipPath></defs><g clip-path="url(#972ba87455)"><g clip-path="url(#51e892b96e)"><path fill="#272222" d="M 31.488281 27.574219 L 33.628906 27.574219 L 33.628906 29.714844 L 31.488281 29.714844 Z M 31.488281 27.574219 " fill-opacity="1" fill-rule="nonzero"/></g></g><g clip-path="url(#4209591bb7)"><path fill="#a6a6a6" d="M 45.523438 6.96875 C 45.523438 7.667969 44.960938 8.230469 44.261719 8.230469 L 2.324219 8.230469 C 1.628906 8.230469 1.066406 7.667969 1.066406 6.96875 C 1.066406 6.273438 1.628906 5.710938 2.324219 5.710938 L 44.253906 5.710938 C 44.953125 5.710938 45.515625 6.273438 45.515625 6.96875 Z M 42.15625 16.566406 L 4.441406 16.566406 C 3.746094 16.566406 3.183594 17.128906 3.183594 17.828125 C 3.183594 18.523438 3.746094 19.085938 4.441406 19.085938 L 42.15625 19.085938 C 42.851562 19.085938 43.414062 18.523438 43.414062 17.828125 C 43.414062 17.128906 42.851562 16.566406 42.15625 16.566406 Z M 40.046875 27.417969 L 6.539062 27.417969 C 5.84375 27.417969 5.28125 27.980469 5.28125 28.675781 C 5.28125 29.375 5.84375 29.9375 6.539062 29.9375 L 40.039062 29.9375 C 40.734375 29.9375 41.296875 29.375 41.296875 28.675781 C 41.296875 27.980469 40.734375 27.417969 40.039062 27.417969 Z M 37.929688 38.277344 L 8.664062 38.277344 C 7.96875 38.277344 7.40625 38.839844 7.40625 39.535156 C 7.40625 40.234375 7.96875 40.796875 8.664062 40.796875 L 37.929688 40.796875 C 38.628906 40.796875 39.191406 40.234375 39.191406 39.535156 C 39.191406 38.839844 38.628906 38.277344 37.929688 38.277344 Z M 37.929688 38.277344 " fill-opacity="1" fill-rule="nonzero"/></g></svg>