<svg xmlns="http://www.w3.org/2000/svg" xmlns:xlink="http://www.w3.org/1999/xlink" width="63" zoomAndPan="magnify" viewBox="0 0 47.25 47.250001" height="63" preserveAspectRatio="xMidYMid meet" version="1.0"><defs><clipPath id="7730b25ff8"><path d="M 31.488281 27.574219 L 33.628906 27.574219 L 33.628906 29.714844 L 31.488281 29.714844 Z M 31.488281 27.574219 " clip-rule="nonzero"/></clipPath><clipPath id="95e9d052f7"><path d="M 32.558594 27.574219 C 31.96875 27.574219 31.488281 28.054688 31.488281 28.644531 C 31.488281 29.238281 31.96875 29.714844 32.558594 29.714844 C 33.148438 29.714844 33.628906 29.238281 33.628906 28.644531 C 33.628906 28.054688 33.148438 27.574219 32.558594 27.574219 Z M 32.558594 27.574219 " clip-rule="nonzero"/></clipPath><clipPath id="6929040586"><path d="M 6 4.757812 L 41 4.757812 L 41 39 L 6 39 Z M 6 4.757812 " clip-rule="nonzero"/></clipPath><clipPath id="c3b64fe9af"><path d="M 1.003906 6 L 45.300781 6 L 45.300781 41.671875 L 1.003906 41.671875 Z M 1.003906 6 " clip-rule="nonzero"/></clipPath></defs><g clip-path="url(#7730b25ff8)"><g clip-path="url(#95e9d052f7)"><path fill="#272222" d="M 31.488281 27.574219 L 33.628906 27.574219 L 33.628906 29.714844 L 31.488281 29.714844 Z M 31.488281 27.574219 " fill-opacity="1" fill-rule="nonzero"/></g></g><g clip-path="url(#6929040586)"><path fill="#f59e72" d="M 40.15625 21.613281 C 40.15625 30.929688 32.609375 38.476562 23.296875 38.476562 C 13.984375 38.476562 6.4375 30.929688 6.4375 21.613281 C 6.4375 12.300781 13.984375 4.753906 23.296875 4.753906 C 32.609375 4.753906 40.15625 12.300781 40.15625 21.613281 Z M 40.15625 21.613281 " fill-opacity="1" fill-rule="nonzero"/></g><g clip-path="url(#c3b64fe9af)"><path fill="#272222" d="M 45.566406 7.828125 C 45.566406 8.523438 45.003906 9.089844 44.304688 9.089844 L 2.289062 9.089844 C 1.59375 9.089844 1.027344 8.523438 1.027344 7.828125 C 1.027344 7.128906 1.59375 6.5625 2.289062 6.5625 L 44.296875 6.5625 C 44.996094 6.5625 45.558594 7.128906 45.558594 7.828125 Z M 42.191406 17.441406 L 4.410156 17.441406 C 3.710938 17.441406 3.148438 18.007812 3.148438 18.703125 C 3.148438 19.402344 3.710938 19.964844 4.410156 19.964844 L 42.191406 19.964844 C 42.890625 19.964844 43.453125 19.402344 43.453125 18.703125 C 43.453125 18.007812 42.890625 17.441406 42.191406 17.441406 Z M 40.082031 28.3125 L 6.511719 28.3125 C 5.816406 28.3125 5.25 28.875 5.25 29.574219 C 5.25 30.273438 5.816406 30.835938 6.511719 30.835938 L 40.074219 30.835938 C 40.769531 30.835938 41.335938 30.273438 41.335938 29.574219 C 41.335938 28.875 40.769531 28.3125 40.074219 28.3125 Z M 37.960938 39.191406 L 8.640625 39.191406 C 7.945312 39.191406 7.378906 39.753906 7.378906 40.453125 C 7.378906 41.148438 7.945312 41.714844 8.640625 41.714844 L 37.960938 41.714844 C 38.660156 41.714844 39.222656 41.148438 39.222656 40.453125 C 39.222656 39.753906 38.660156 39.191406 37.960938 39.191406 Z M 37.960938 39.191406 " fill-opacity="1" fill-rule="nonzero"/></g></svg>