<svg xmlns="http://www.w3.org/2000/svg" xmlns:xlink="http://www.w3.org/1999/xlink" width="63" zoomAndPan="magnify" viewBox="0 0 47.25 47.250001" height="63" preserveAspectRatio="xMidYMid meet" version="1.0"><defs><clipPath id="b488e28505"><path d="M 5 2.5 L 41 2.5 L 41 39 L 5 39 Z M 5 2.5 " clip-rule="nonzero"/></clipPath><clipPath id="dea806c042"><path d="M 0.957031 2.5 L 45.253906 2.5 L 45.253906 43.84375 L 0.957031 43.84375 Z M 0.957031 2.5 " clip-rule="nonzero"/></clipPath></defs><g clip-path="url(#b488e28505)"><path fill="#f59e72" d="M 40.90625 20.691406 C 40.90625 30.464844 32.984375 38.386719 23.210938 38.386719 C 13.433594 38.386719 5.511719 30.464844 5.511719 20.691406 C 5.511719 10.914062 13.433594 2.992188 23.210938 2.992188 C 32.984375 2.992188 40.90625 10.914062 40.90625 20.691406 Z M 40.90625 20.691406 " fill-opacity="1" fill-rule="nonzero"/></g><g clip-path="url(#dea806c042)"><path fill="#272222" d="M 45.050781 27.800781 C 45.570312 28.320312 45.570312 29.160156 45.050781 29.671875 C 44.792969 29.925781 44.449219 30.058594 44.113281 30.058594 C 43.777344 30.058594 43.433594 29.925781 43.175781 29.671875 L 39.078125 25.574219 L 34.980469 29.671875 C 34.726562 29.925781 34.382812 30.058594 34.046875 30.058594 C 33.710938 30.058594 33.367188 29.925781 33.109375 29.671875 C 32.589844 29.148438 32.589844 28.3125 33.109375 27.800781 L 37.207031 23.703125 L 33.109375 19.605469 C 32.589844 19.082031 32.589844 18.242188 33.109375 17.730469 C 33.628906 17.21875 34.46875 17.210938 34.980469 17.730469 L 39.078125 21.828125 L 43.175781 17.730469 C 43.699219 17.210938 44.535156 17.210938 45.050781 17.730469 C 45.5625 18.253906 45.570312 19.089844 45.050781 19.605469 L 40.953125 23.703125 Z M 28.886719 6.410156 L 28.886719 40.285156 C 28.886719 41.691406 28.113281 42.945312 26.859375 43.578125 C 26.328125 43.84375 25.761719 43.976562 25.195312 43.976562 C 24.421875 43.976562 23.652344 43.730469 23.007812 43.246094 L 12.964844 35.78125 C 12.402344 35.367188 11.730469 35.144531 11.03125 35.144531 L 4.410156 35.144531 C 2.527344 35.144531 0.992188 33.609375 0.992188 31.730469 L 0.992188 14.996094 C 0.992188 13.113281 2.527344 11.578125 4.410156 11.578125 L 11.015625 11.578125 C 11.703125 11.578125 12.390625 11.347656 12.949219 10.941406 L 23.007812 3.46875 C 24.128906 2.632812 25.601562 2.507812 26.859375 3.132812 C 28.113281 3.761719 28.886719 5.023438 28.886719 6.429688 Z M 26.238281 6.410156 C 26.238281 5.835938 25.84375 5.570312 25.675781 5.484375 C 25.507812 5.394531 25.054688 5.226562 24.597656 5.582031 L 14.539062 13.050781 C 13.53125 13.800781 12.285156 14.21875 11.023438 14.21875 L 4.417969 14.21875 C 3.996094 14.21875 3.648438 14.5625 3.648438 14.984375 L 3.648438 31.71875 C 3.648438 32.144531 3.996094 32.488281 4.417969 32.488281 L 11.042969 32.488281 C 12.3125 32.488281 13.53125 32.894531 14.554688 33.652344 L 24.597656 41.117188 C 25.054688 41.460938 25.507812 41.292969 25.675781 41.214844 C 25.84375 41.125 26.238281 40.867188 26.238281 40.285156 L 26.238281 6.402344 Z M 26.238281 6.410156 " fill-opacity="1" fill-rule="nonzero"/></g></svg>