<svg xmlns="http://www.w3.org/2000/svg" xmlns:xlink="http://www.w3.org/1999/xlink" width="63" zoomAndPan="magnify" viewBox="0 0 47.25 47.250001" height="63" preserveAspectRatio="xMidYMid meet" version="1.0"><defs><clipPath id="24f315c5a2"><path d="M 1.070312 2.621094 L 45.367188 2.621094 L 45.367188 43.964844 L 1.070312 43.964844 Z M 1.070312 2.621094 " clip-rule="nonzero"/></clipPath></defs><g clip-path="url(#24f315c5a2)"><path fill="#a6a6a6" d="M 44.921875 27.777344 C 45.4375 28.292969 45.4375 29.128906 44.921875 29.636719 C 44.664062 29.890625 44.324219 30.023438 43.988281 30.023438 C 43.65625 30.023438 43.3125 29.890625 43.058594 29.636719 L 38.984375 25.5625 L 34.910156 29.636719 C 34.65625 29.890625 34.316406 30.023438 33.980469 30.023438 C 33.648438 30.023438 33.304688 29.890625 33.050781 29.636719 C 32.53125 29.117188 32.53125 28.285156 33.050781 27.777344 L 37.125 23.703125 L 33.050781 19.628906 C 32.53125 19.109375 32.53125 18.277344 33.050781 17.765625 C 33.570312 17.257812 34.402344 17.25 34.910156 17.765625 L 38.984375 21.839844 L 43.058594 17.765625 C 43.578125 17.25 44.410156 17.25 44.921875 17.765625 C 45.429688 18.285156 45.4375 19.117188 44.921875 19.628906 L 40.847656 23.703125 Z M 28.855469 6.511719 L 28.855469 40.191406 C 28.855469 41.585938 28.082031 42.832031 26.835938 43.464844 C 26.308594 43.726562 25.746094 43.859375 25.183594 43.859375 C 24.410156 43.859375 23.648438 43.613281 23.007812 43.128906 L 13.023438 35.710938 C 12.464844 35.300781 11.796875 35.078125 11.101562 35.078125 L 4.515625 35.078125 C 2.648438 35.078125 1.121094 33.550781 1.121094 31.683594 L 1.121094 15.046875 C 1.121094 13.175781 2.648438 11.648438 4.515625 11.648438 L 11.085938 11.648438 C 11.769531 11.648438 12.453125 11.417969 13.007812 11.015625 L 23.007812 3.589844 C 24.121094 2.753906 25.589844 2.632812 26.835938 3.253906 C 28.082031 3.878906 28.855469 5.132812 28.855469 6.53125 Z M 26.21875 6.511719 C 26.21875 5.941406 25.824219 5.679688 25.660156 5.589844 C 25.492188 5.503906 25.042969 5.335938 24.585938 5.6875 L 14.585938 13.113281 C 13.585938 13.859375 12.347656 14.273438 11.09375 14.273438 L 4.527344 14.273438 C 4.105469 14.273438 3.761719 14.617188 3.761719 15.035156 L 3.761719 31.671875 C 3.761719 32.09375 4.105469 32.4375 4.527344 32.4375 L 11.109375 32.4375 C 12.375 32.4375 13.585938 32.839844 14.605469 33.597656 L 24.585938 41.015625 C 25.042969 41.355469 25.492188 41.191406 25.660156 41.113281 C 25.824219 41.023438 26.21875 40.769531 26.21875 40.191406 L 26.21875 6.503906 Z M 26.21875 6.511719 " fill-opacity="1" fill-rule="nonzero"/></g></svg>