<svg xmlns="http://www.w3.org/2000/svg" xmlns:xlink="http://www.w3.org/1999/xlink" width="63" zoomAndPan="magnify" viewBox="0 0 47.25 47.250001" height="63" preserveAspectRatio="xMidYMid meet" version="1.0"><defs><clipPath id="c4f91b4570"><path d="M 1.058594 2 L 45.355469 2 L 45.355469 44.820312 L 1.058594 44.820312 Z M 1.058594 2 " clip-rule="nonzero"/></clipPath></defs><path fill="#f59e72" d="M 39.320312 20.894531 C 39.320312 29.75 32.144531 36.921875 23.292969 36.921875 C 14.4375 36.921875 7.261719 29.75 7.261719 20.894531 C 7.261719 12.042969 14.4375 4.867188 23.292969 4.867188 C 32.144531 4.867188 39.320312 12.042969 39.320312 20.894531 Z M 39.320312 20.894531 " fill-opacity="1" fill-rule="nonzero"/><g clip-path="url(#c4f91b4570)"><path fill="#272222" d="M 45.117188 18.6875 C 44.75 17.402344 43.648438 16.519531 42.304688 16.464844 L 30.640625 15.9375 C 30.355469 15.921875 30.113281 15.730469 30.027344 15.457031 L 26.730469 4.257812 C 26.355469 2.972656 25.242188 2.109375 23.898438 2.058594 C 22.570312 2.042969 21.386719 2.789062 20.917969 4.042969 L 16.804688 14.96875 C 16.703125 15.234375 16.40625 15.402344 16.15625 15.402344 L 4.488281 15.082031 C 3.160156 15.066406 1.984375 15.832031 1.519531 17.097656 C 1.058594 18.359375 1.441406 19.710938 2.488281 20.542969 L 11.605469 27.828125 C 11.832031 28.007812 11.917969 28.308594 11.824219 28.574219 L 7.910156 39.570312 C 7.464844 40.835938 7.855469 42.1875 8.910156 43.019531 C 9.96875 43.851562 11.375 43.90625 12.496094 43.164062 L 22.234375 36.738281 C 22.476562 36.578125 22.789062 36.597656 23.011719 36.773438 L 32.257812 43.890625 C 32.816406 44.320312 33.472656 44.539062 34.128906 44.539062 C 34.722656 44.539062 35.3125 44.363281 35.839844 44.011719 C 36.953125 43.257812 37.441406 41.9375 37.089844 40.652344 L 33.992188 29.398438 C 33.921875 29.125 34.023438 28.828125 34.257812 28.667969 L 43.886719 22.070312 C 44.992188 21.3125 45.46875 19.992188 45.101562 18.703125 Z M 42.542969 20.078125 L 32.914062 26.679688 C 31.832031 27.414062 31.335938 28.765625 31.691406 30.019531 L 34.785156 41.273438 C 34.898438 41.691406 34.632812 41.921875 34.511719 42.011719 C 34.394531 42.089844 34.082031 42.25 33.730469 41.988281 L 24.484375 34.867188 C 23.445312 34.070312 22.019531 34.019531 20.925781 34.742188 L 11.183594 41.164062 C 10.824219 41.402344 10.519531 41.21875 10.398438 41.128906 C 10.285156 41.042969 10.039062 40.785156 10.183594 40.378906 L 14.09375 29.382812 C 14.535156 28.148438 14.140625 26.773438 13.117188 25.957031 L 4 18.671875 C 3.664062 18.398438 3.738281 18.054688 3.792969 17.921875 C 3.839844 17.785156 4 17.480469 4.417969 17.480469 L 4.441406 17.480469 L 16.109375 17.800781 C 17.40625 17.839844 18.605469 17.039062 19.070312 15.816406 L 23.179688 4.890625 C 23.332031 4.484375 23.691406 4.460938 23.828125 4.460938 C 23.972656 4.460938 24.324219 4.523438 24.445312 4.941406 L 27.738281 16.136719 C 28.105469 17.390625 29.234375 18.273438 30.539062 18.335938 L 42.199219 18.863281 C 42.632812 18.886719 42.773438 19.207031 42.816406 19.351562 C 42.855469 19.488281 42.910156 19.839844 42.550781 20.085938 Z M 42.542969 20.078125 " fill-opacity="1" fill-rule="nonzero"/></g></svg>