<svg xmlns="http://www.w3.org/2000/svg" xmlns:xlink="http://www.w3.org/1999/xlink" width="63" zoomAndPan="magnify" viewBox="0 0 47.25 47.250001" height="63" preserveAspectRatio="xMidYMid meet" version="1.0"><defs><clipPath id="4c2f401145"><path d="M 1.25 2.203125 L 45.546875 2.203125 L 45.546875 44.285156 L 1.25 44.285156 Z M 1.25 2.203125 " clip-rule="nonzero"/></clipPath></defs><g clip-path="url(#4c2f401145)"><path fill="#272222" d="M 44.933594 18.726562 C 44.566406 17.449219 43.472656 16.578125 42.140625 16.523438 L 30.578125 16 C 30.292969 15.984375 30.054688 15.792969 29.96875 15.523438 L 26.703125 4.421875 C 26.328125 3.144531 25.226562 2.289062 23.894531 2.242188 C 22.578125 2.226562 21.40625 2.964844 20.9375 4.207031 L 16.863281 15.039062 C 16.757812 15.300781 16.464844 15.46875 16.21875 15.46875 L 4.652344 15.152344 C 3.335938 15.136719 2.167969 15.894531 1.707031 17.148438 C 1.25 18.402344 1.628906 19.742188 2.667969 20.566406 L 11.707031 27.789062 C 11.929688 27.964844 12.015625 28.265625 11.921875 28.527344 L 8.042969 39.429688 C 7.601562 40.683594 7.988281 42.023438 9.035156 42.847656 C 10.082031 43.671875 11.476562 43.730469 12.589844 42.992188 L 22.246094 36.625 C 22.484375 36.464844 22.792969 36.480469 23.015625 36.65625 L 32.179688 43.710938 C 32.738281 44.140625 33.386719 44.355469 34.035156 44.355469 C 34.625 44.355469 35.210938 44.179688 35.734375 43.832031 C 36.835938 43.085938 37.320312 41.777344 36.972656 40.5 L 33.902344 29.34375 C 33.832031 29.074219 33.933594 28.78125 34.164062 28.625 L 43.710938 22.082031 C 44.804688 21.328125 45.28125 20.019531 44.917969 18.742188 Z M 42.378906 20.105469 L 32.832031 26.648438 C 31.761719 27.378906 31.269531 28.71875 31.617188 29.964844 L 34.6875 41.121094 C 34.796875 41.53125 34.535156 41.761719 34.417969 41.847656 C 34.296875 41.929688 33.988281 42.085938 33.640625 41.824219 L 24.472656 34.769531 C 23.441406 33.976562 22.03125 33.929688 20.945312 34.640625 L 11.289062 41.007812 C 10.929688 41.246094 10.628906 41.0625 10.511719 40.976562 C 10.398438 40.890625 10.152344 40.636719 10.296875 40.230469 L 14.171875 29.328125 C 14.609375 28.109375 14.222656 26.742188 13.207031 25.933594 L 4.167969 18.710938 C 3.832031 18.441406 3.90625 18.101562 3.960938 17.964844 C 4.007812 17.832031 4.167969 17.53125 4.578125 17.53125 L 4.601562 17.53125 L 16.171875 17.847656 C 17.457031 17.886719 18.644531 17.09375 19.105469 15.878906 L 23.179688 5.050781 C 23.332031 4.644531 23.6875 4.621094 23.824219 4.621094 C 23.964844 4.621094 24.316406 4.683594 24.433594 5.097656 L 27.703125 16.199219 C 28.066406 17.441406 29.183594 18.316406 30.476562 18.378906 L 42.039062 18.902344 C 42.464844 18.925781 42.609375 19.242188 42.648438 19.386719 C 42.6875 19.519531 42.742188 19.867188 42.386719 20.113281 Z M 42.378906 20.105469 " fill-opacity="1" fill-rule="nonzero"/></g></svg>