<svg xmlns="http://www.w3.org/2000/svg" xmlns:xlink="http://www.w3.org/1999/xlink" width="63" zoomAndPan="magnify" viewBox="0 0 47.25 47.250001" height="63" preserveAspectRatio="xMidYMid meet" version="1.0"><defs><clipPath id="f2909a226d"><path d="M 1.746094 1.011719 L 44.566406 1.011719 L 44.566406 45.308594 L 1.746094 45.308594 Z M 1.746094 1.011719 " clip-rule="nonzero"/></clipPath></defs><g clip-path="url(#f2909a226d)"><path fill="#a6a6a6" d="M 38.929688 0.996094 L 7.582031 0.996094 C 4.363281 0.996094 1.734375 3.625 1.734375 6.84375 L 1.734375 29.851562 C 1.734375 33.074219 4.363281 35.691406 7.582031 35.691406 L 34.550781 35.691406 L 41.898438 44.761719 C 42.203125 45.179688 42.6875 45.421875 43.183594 45.421875 C 43.351562 45.421875 43.515625 45.394531 43.679688 45.34375 C 44.34375 45.132812 44.78125 44.519531 44.78125 43.828125 L 44.78125 6.84375 C 44.78125 3.625 42.152344 0.996094 38.929688 0.996094 Z M 41.859375 40.082031 L 35.945312 32.769531 L 7.582031 32.769531 C 5.96875 32.769531 4.65625 31.457031 4.65625 29.851562 L 4.65625 6.84375 C 4.65625 5.230469 5.96875 3.914062 7.582031 3.914062 L 38.929688 3.914062 C 40.546875 3.914062 41.859375 5.230469 41.859375 6.84375 Z M 33.714844 9.648438 L 33.714844 26.484375 C 33.714844 27.292969 33.0625 27.945312 32.253906 27.945312 C 31.449219 27.945312 30.796875 27.292969 30.796875 26.484375 L 30.796875 9.648438 C 30.796875 8.839844 31.449219 8.1875 32.253906 8.1875 C 33.0625 8.1875 33.714844 8.839844 33.714844 9.648438 Z M 24.925781 14.144531 L 24.925781 26.492188 C 24.925781 27.300781 24.273438 27.953125 23.46875 27.953125 C 22.660156 27.953125 22.007812 27.300781 22.007812 26.492188 L 22.007812 14.144531 C 22.007812 13.335938 22.660156 12.683594 23.46875 12.683594 C 24.273438 12.683594 24.925781 13.335938 24.925781 14.144531 Z M 16.136719 20.917969 L 16.136719 26.484375 C 16.136719 27.292969 15.488281 27.945312 14.679688 27.945312 C 13.871094 27.945312 13.21875 27.292969 13.21875 26.484375 L 13.21875 20.917969 C 13.21875 20.109375 13.871094 19.457031 14.679688 19.457031 C 15.488281 19.457031 16.136719 20.109375 16.136719 20.917969 Z M 16.136719 20.917969 " fill-opacity="1" fill-rule="nonzero"/></g></svg>