<svg xmlns="http://www.w3.org/2000/svg" xmlns:xlink="http://www.w3.org/1999/xlink" width="63" zoomAndPan="magnify" viewBox="0 0 47.25 47.250001" height="63" preserveAspectRatio="xMidYMid meet" version="1.0"><defs><clipPath id="8e7deffa26"><path d="M 1.820312 1.089844 L 44.640625 1.089844 L 44.640625 45.386719 L 1.820312 45.386719 Z M 1.820312 1.089844 " clip-rule="nonzero"/></clipPath></defs><path fill="#f59e72" d="M 41.085938 21.226562 C 41.085938 31.082031 33.105469 39.0625 23.25 39.0625 C 13.398438 39.0625 5.417969 31.082031 5.417969 21.226562 C 5.417969 11.375 13.398438 3.390625 23.25 3.390625 C 33.105469 3.390625 41.085938 11.375 41.085938 21.226562 Z M 41.085938 21.226562 " fill-opacity="1" fill-rule="nonzero"/><g clip-path="url(#8e7deffa26)"><path fill="#272222" d="M 38.875 1.074219 L 7.636719 1.074219 C 4.425781 1.074219 1.808594 3.691406 1.808594 6.902344 L 1.808594 29.828125 C 1.808594 33.039062 4.425781 35.648438 7.636719 35.648438 L 34.511719 35.648438 L 41.832031 44.6875 C 42.132812 45.105469 42.617188 45.347656 43.113281 45.347656 C 43.277344 45.347656 43.445312 45.316406 43.609375 45.269531 C 44.269531 45.054688 44.703125 44.445312 44.703125 43.757812 L 44.703125 6.902344 C 44.703125 3.691406 42.085938 1.074219 38.875 1.074219 Z M 41.792969 40.023438 L 35.898438 32.738281 L 7.636719 32.738281 C 6.027344 32.738281 4.71875 31.429688 4.71875 29.828125 L 4.71875 6.902344 C 4.71875 5.292969 6.027344 3.984375 7.636719 3.984375 L 38.875 3.984375 C 40.484375 3.984375 41.792969 5.292969 41.792969 6.902344 Z M 33.675781 9.695312 L 33.675781 26.472656 C 33.675781 27.277344 33.027344 27.929688 32.222656 27.929688 C 31.417969 27.929688 30.769531 27.277344 30.769531 26.472656 L 30.769531 9.695312 C 30.769531 8.890625 31.417969 8.242188 32.222656 8.242188 C 33.027344 8.242188 33.675781 8.890625 33.675781 9.695312 Z M 24.917969 14.175781 L 24.917969 26.484375 C 24.917969 27.289062 24.269531 27.9375 23.464844 27.9375 C 22.660156 27.9375 22.011719 27.289062 22.011719 26.484375 L 22.011719 14.175781 C 22.011719 13.371094 22.660156 12.722656 23.464844 12.722656 C 24.269531 12.722656 24.917969 13.371094 24.917969 14.175781 Z M 16.164062 20.925781 L 16.164062 26.472656 C 16.164062 27.277344 15.511719 27.929688 14.707031 27.929688 C 13.902344 27.929688 13.253906 27.277344 13.253906 26.472656 L 13.253906 20.925781 C 13.253906 20.121094 13.902344 19.472656 14.707031 19.472656 C 15.511719 19.472656 16.164062 20.121094 16.164062 20.925781 Z M 16.164062 20.925781 " fill-opacity="1" fill-rule="nonzero"/></g></svg>