<svg xmlns="http://www.w3.org/2000/svg" xmlns:xlink="http://www.w3.org/1999/xlink" width="63" zoomAndPan="magnify" viewBox="0 0 47.25 47.250001" height="63" preserveAspectRatio="xMidYMid meet" version="1.0"><defs><clipPath id="622c3ca98f"><path d="M 36.949219 36.878906 L 39.09375 36.878906 L 39.09375 39.019531 L 36.949219 39.019531 Z M 36.949219 36.878906 " clip-rule="nonzero"/></clipPath><clipPath id="d4b69bd17f"><path d="M 38.019531 36.878906 C 37.429688 36.878906 36.949219 37.355469 36.949219 37.949219 C 36.949219 38.539062 37.429688 39.019531 38.019531 39.019531 C 38.613281 39.019531 39.09375 38.539062 39.09375 37.949219 C 39.09375 37.355469 38.613281 36.878906 38.019531 36.878906 Z M 38.019531 36.878906 " clip-rule="nonzero"/></clipPath><clipPath id="a61445d224"><path d="M 1.105469 1.109375 L 45.402344 1.109375 L 45.402344 45.40625 L 1.105469 45.40625 Z M 1.105469 1.109375 " clip-rule="nonzero"/></clipPath></defs><g clip-path="url(#622c3ca98f)"><g clip-path="url(#d4b69bd17f)"><path fill="#272222" d="M 36.949219 36.878906 L 39.09375 36.878906 L 39.09375 39.019531 L 36.949219 39.019531 Z M 36.949219 36.878906 " fill-opacity="1" fill-rule="nonzero"/></g></g><path fill="#f59e72" d="M 40.878906 20.667969 C 40.878906 30.378906 33.011719 38.246094 23.300781 38.246094 C 13.589844 38.246094 5.722656 30.378906 5.722656 20.667969 C 5.722656 10.957031 13.589844 3.089844 23.300781 3.089844 C 33.011719 3.089844 40.878906 10.957031 40.878906 20.667969 Z M 40.878906 20.667969 " fill-opacity="1" fill-rule="nonzero"/><g clip-path="url(#a61445d224)"><path fill="#272222" d="M 23.300781 1.132812 C 11.082031 1.132812 1.132812 11.082031 1.132812 23.300781 C 1.132812 31.195312 5.386719 38.554688 12.230469 42.5 C 15.570312 44.4375 19.394531 45.464844 23.300781 45.464844 C 27.203125 45.464844 31.019531 44.4375 34.359375 42.507812 C 41.210938 38.5625 45.464844 31.203125 45.464844 23.300781 C 45.464844 11.082031 35.519531 1.132812 23.300781 1.132812 Z M 33.046875 40.230469 C 30.105469 41.929688 26.730469 42.835938 23.300781 42.835938 C 19.871094 42.835938 16.484375 41.929688 13.546875 40.21875 C 7.511719 36.738281 3.765625 30.253906 3.765625 23.300781 C 3.765625 12.527344 12.527344 3.765625 23.300781 3.765625 C 34.070312 3.765625 42.835938 12.527344 42.835938 23.300781 C 42.835938 30.265625 39.078125 36.753906 33.046875 40.230469 Z M 23.300781 24.617188 C 27.429688 24.617188 30.800781 21.246094 30.800781 17.117188 C 30.800781 12.984375 27.429688 9.617188 23.300781 9.617188 C 19.167969 9.617188 15.800781 12.984375 15.800781 17.117188 C 15.800781 21.246094 19.167969 24.617188 23.300781 24.617188 Z M 23.300781 12.246094 C 25.984375 12.246094 28.167969 14.429688 28.167969 17.117188 C 28.167969 19.800781 25.984375 21.984375 23.300781 21.984375 C 20.617188 21.984375 18.429688 19.800781 18.429688 17.117188 C 18.429688 14.429688 20.617188 12.246094 23.300781 12.246094 Z M 35.019531 34.464844 L 35.019531 36.054688 C 35.019531 36.78125 34.429688 37.371094 33.703125 37.371094 C 32.976562 37.371094 32.386719 36.78125 32.386719 36.054688 L 32.386719 34.464844 C 32.386719 31.28125 29.800781 28.695312 26.625 28.695312 L 19.976562 28.695312 C 16.792969 28.695312 14.203125 31.28125 14.203125 34.464844 L 14.203125 35.765625 C 14.203125 36.492188 13.617188 37.078125 12.886719 37.078125 C 12.160156 37.078125 11.570312 36.492188 11.570312 35.765625 L 11.570312 34.464844 C 11.570312 29.835938 15.34375 26.0625 19.976562 26.0625 L 26.625 26.0625 C 31.253906 26.0625 35.019531 29.835938 35.019531 34.464844 Z M 35.019531 34.464844 " fill-opacity="1" fill-rule="nonzero"/></g></svg>