<svg xmlns="http://www.w3.org/2000/svg" xmlns:xlink="http://www.w3.org/1999/xlink" width="63" zoomAndPan="magnify" viewBox="0 0 47.25 47.250001" height="63" preserveAspectRatio="xMidYMid meet" version="1.0"><defs><clipPath id="9350f24bce"><path d="M 1.03125 1.03125 L 45.328125 1.03125 L 45.328125 45.328125 L 1.03125 45.328125 Z M 1.03125 1.03125 " clip-rule="nonzero"/></clipPath></defs><g clip-path="url(#9350f24bce)"><path fill="#272222" d="M 23.253906 1.03125 C 10.980469 1.03125 1.03125 10.980469 1.03125 23.253906 C 1.03125 35.53125 10.980469 45.476562 23.253906 45.476562 C 35.53125 45.476562 45.476562 35.53125 45.476562 23.253906 C 45.457031 10.980469 35.511719 1.03125 23.253906 1.03125 Z M 31.699219 28.332031 C 28.027344 32.914062 24.042969 37.320312 20.675781 36.839844 C 16.980469 36.320312 15.789062 29.160156 15.269531 27.21875 C 13.960938 22.371094 12.960938 18.519531 11.421875 18.539062 C 10.921875 18.539062 9.054688 19.90625 9.054688 19.90625 L 7.667969 18.117188 C 7.667969 18.117188 11.171875 15.039062 12.554688 13.828125 C 13.941406 12.613281 15.847656 11.285156 17.425781 11.691406 C 19.058594 12.113281 20.058594 13.152344 20.714844 17.117188 C 21.367188 21.082031 22.351562 27.390625 23.890625 27.621094 C 25.410156 27.851562 27.929688 22.714844 28.257812 22.042969 C 28.585938 21.367188 29.390625 19.136719 28.257812 18.195312 C 27.121094 17.230469 24.621094 18.214844 24.621094 18.214844 C 24.621094 18.214844 25.160156 15.597656 26.871094 13.828125 C 27.929688 12.710938 29.660156 11.304688 32.835938 11.304688 C 34.261719 11.304688 37.089844 11.730469 37.28125 16.421875 C 37.414062 20.078125 35.03125 24.195312 31.699219 28.332031 Z M 31.699219 28.332031 " fill-opacity="1" fill-rule="nonzero"/></g></svg>