<svg xmlns="http://www.w3.org/2000/svg" xmlns:xlink="http://www.w3.org/1999/xlink" width="63" zoomAndPan="magnify" viewBox="0 0 47.25 47.250001" height="63" preserveAspectRatio="xMidYMid meet" version="1.0"><defs><clipPath id="7e57a0e91c"><path d="M 1 9.121094 L 45.25 9.121094 L 45.25 37.175781 L 1 37.175781 Z M 1 9.121094 " clip-rule="nonzero"/></clipPath></defs><g clip-path="url(#7e57a0e91c)"><path fill="#a6a6a6" d="M 45.160156 22.46875 L 41.296875 17.710938 C 36.859375 12.25 30.285156 9.121094 23.25 9.121094 C 16.214844 9.121094 9.640625 12.25 5.203125 17.710938 L 1.339844 22.46875 C 0.96875 22.921875 0.96875 23.574219 1.339844 24.027344 L 5.203125 28.785156 C 9.640625 34.242188 16.214844 37.375 23.25 37.375 C 30.285156 37.375 36.859375 34.242188 41.296875 28.785156 L 45.160156 24.027344 C 45.53125 23.574219 45.53125 22.921875 45.160156 22.46875 Z M 39.371094 27.222656 C 35.40625 32.097656 29.535156 34.898438 23.25 34.898438 C 16.964844 34.898438 11.09375 32.097656 7.128906 27.222656 L 3.890625 23.242188 L 7.128906 19.261719 C 11.09375 14.390625 16.964844 11.589844 23.25 11.589844 C 29.535156 11.589844 35.40625 14.390625 39.371094 19.261719 L 42.609375 23.242188 Z M 30.121094 19.675781 C 29.90625 19.707031 29.667969 19.71875 29.410156 19.71875 C 26.734375 19.71875 24.382812 18.007812 23.539062 15.464844 C 23.359375 14.902344 22.804688 14.554688 22.21875 14.621094 C 17.867188 15.125 14.578125 18.824219 14.578125 23.21875 C 14.578125 27.992188 18.46875 31.875 23.242188 31.875 C 28.015625 31.875 31.898438 27.992188 31.898438 23.21875 C 31.898438 22.292969 31.75 21.386719 31.46875 20.511719 C 31.277344 19.941406 30.707031 19.585938 30.113281 19.667969 Z M 23.25 29.394531 C 19.839844 29.394531 17.0625 26.621094 17.0625 23.21875 C 17.0625 20.394531 18.957031 17.984375 21.597656 17.257812 C 23.011719 20.230469 25.992188 22.160156 29.34375 22.195312 C 29.402344 22.535156 29.425781 22.871094 29.425781 23.21875 C 29.425781 26.621094 26.652344 29.394531 23.25 29.394531 Z M 23.25 29.394531 " fill-opacity="1" fill-rule="nonzero"/></g></svg>