<svg xmlns="http://www.w3.org/2000/svg" xmlns:xlink="http://www.w3.org/1999/xlink" width="63" zoomAndPan="magnify" viewBox="0 0 47.25 47.250001" height="63" preserveAspectRatio="xMidYMid meet" version="1.0"><defs><clipPath id="67250a77a6"><path d="M 6 6.902344 L 40 6.902344 L 40 39.386719 L 6 39.386719 Z M 6 6.902344 " clip-rule="nonzero"/></clipPath><clipPath id="ff67152013"><path d="M 1.234375 11 L 45.53125 11 L 45.53125 39.386719 L 1.234375 39.386719 Z M 1.234375 11 " clip-rule="nonzero"/></clipPath></defs><g clip-path="url(#67250a77a6)"><path fill="#f59e72" d="M 39.597656 23.214844 C 39.597656 32.242188 32.28125 39.558594 23.253906 39.558594 C 14.226562 39.558594 6.910156 32.242188 6.910156 23.214844 C 6.910156 14.1875 14.226562 6.871094 23.253906 6.871094 C 32.28125 6.871094 39.597656 14.1875 39.597656 23.214844 Z M 39.597656 23.214844 " fill-opacity="1" fill-rule="nonzero"/></g><g clip-path="url(#ff67152013)"><path fill="#272222" d="M 44.890625 24.886719 L 41.074219 20.1875 C 36.695312 14.796875 30.203125 11.707031 23.253906 11.707031 C 16.304688 11.707031 9.8125 14.796875 5.433594 20.1875 L 1.617188 24.886719 C 1.25 25.335938 1.25 25.980469 1.617188 26.429688 L 5.433594 31.125 C 9.8125 36.515625 16.304688 39.609375 23.253906 39.609375 C 30.203125 39.609375 36.695312 36.515625 41.074219 31.125 L 44.890625 26.429688 C 45.257812 25.980469 45.257812 25.335938 44.890625 24.886719 Z M 39.175781 29.585938 C 35.257812 34.394531 29.460938 37.160156 23.253906 37.160156 C 17.046875 37.160156 11.25 34.394531 7.335938 29.585938 L 4.136719 25.652344 L 7.335938 21.722656 C 11.25 16.910156 17.046875 14.144531 23.253906 14.144531 C 29.460938 14.144531 35.257812 16.910156 39.175781 21.722656 L 42.371094 25.652344 Z M 30.039062 22.128906 C 29.828125 22.164062 29.589844 22.171875 29.339844 22.171875 C 26.695312 22.171875 24.371094 20.484375 23.539062 17.972656 C 23.359375 17.417969 22.8125 17.074219 22.234375 17.140625 C 17.9375 17.636719 14.691406 21.289062 14.691406 25.628906 C 14.691406 30.34375 18.53125 34.175781 23.246094 34.175781 C 27.960938 34.175781 31.792969 30.34375 31.792969 25.628906 C 31.792969 24.714844 31.648438 23.820312 31.371094 22.953125 C 31.183594 22.390625 30.617188 22.039062 30.03125 22.121094 Z M 23.253906 31.730469 C 19.886719 31.730469 17.144531 28.988281 17.144531 25.628906 C 17.144531 22.839844 19.015625 20.457031 21.625 19.742188 C 23.019531 22.675781 25.960938 24.585938 29.273438 24.617188 C 29.332031 24.953125 29.355469 25.285156 29.355469 25.628906 C 29.355469 28.988281 26.613281 31.730469 23.253906 31.730469 Z M 23.253906 31.730469 " fill-opacity="1" fill-rule="nonzero"/></g></svg>